<svg version="1" xmlns="http://www.w3.org/2000/svg" width="1194.667" height="1194.667" viewBox="0 0 896.000000 896.000000"><path d="M443.5 15.3c-1.1 1.1-1.4 1.7-.7 1.3 1.8-1.1 1.4.5-.5 2-1.7 1.2-1.7 1.2.1 1.1 1.3-.1 1.9.5 2.1 2 .1 1.6-.2 2-1 1.3s-1.2-.5-1.2.5c0 .8.7 1.5 1.5 1.5 1.1 0 1.2.3.3 1.4-.7.9-.8 1.7-.2 2 .5.3.7 1.5.4 2.6-.3 1.1-.9 1.7-1.3 1.5-.5-.3-.5.9 0 2.6.8 2.5.7 2.9-.5 1.9-1.1-.9-1.2-.7-.8 1.1.5 1.7.3 2-.8 1.4-1.2-.7-1.2-.6-.1.7 1 1.3.9 1.6-1 2.1-2.2.6-2.2.6-.2 2.8 1 1.2 1.3 1.9.7 1.5-.9-.5-1.1-.2-.7.8.3.9 1.4 1.6 2.3 1.7 1 0 1.1.2.4.6-.7.2-1.3 1.1-1.3 1.9 0 .8.6 1.4 1.3 1.4.6 0 .4.5-.5 1.1-1 .5-1.8 1.5-1.8 2.2 0 .7.4.6 1-.3.8-1.2.9-1 .7.8-.2 1.3-1 2.8-1.8 3.3-1.2.7-1.2.9.1.9.9.1.6.6-1 1.6-1.4.8-1.7 1.3-.7 1 .9-.3 1.7-.1 1.7.4 0 .6-.7 1-1.6 1-.8 0-1.2.4-.9 1 .4.6-.1.7-1.1.3-1.2-.4-1.5-.3-1 .5.4.7.2 1.2-.4 1.2-.6 0-.9.4-.5.9.7 1.2-2.9 3.3-4 2.3-.5-.4-.5-.1-.1.5.4.7.2 1.3-.4 1.3-.6 0-.8.5-.4 1.2.5.8 0 .7-1.1-.2-1.6-1.4-1.7-1.3-1.1.8.6 1.7.3 2.2-1.1 2.3-1.6 0-1.6.1.2.9 1.1.5 1.4.9.8.9-1.8.1-1.6 2.1.2 2.1.8 0 1.5.7 1.5 1.6 0 .8.4 1.3.9 1 .5-.3 1.5.2 2.2 1.1 1 1.2 1 1.4.2.9-.9-.5-1.3.1-1.3 1.8 0 1.4-.6 2.6-1.2 2.6-.9 0-.8.4.2 1 1.3.9.7 1.4-1.2 1.1-.5 0-.8.5-.8 1.1 0 1-.2 1-.9 0-.7-1.1-1.1-1.1-2.4.2-1.1 1.2-1.7 1.3-2 .3-.3-.7-.6-.5-.6.5-.1.9-.6 2-1.3 2.4-.6.4-.8.3-.5-.3.4-.6 0-1.3-.8-1.7-.8-.3-1.5-.1-1.5.5s-.6.7-1.2.3c-.9-.5-.8-.2.1.9 1.2 1.5 1.2 1.7-.3 1.1-1-.4-1.6-.1-1.6.9 0 .9-.5 1.9-1.2 2.3-.7.5-.9.2-.4-.7.4-.8.1-.6-.7.3-.8 1-1.8 1.4-2.3 1-.4-.4-.3 0 .4.9 1 1.3.8 1.9-1.1 3.5l-2.2 1.9 1.9-2.3c1.1-1.2 1.4-2.2.8-2.2-.7 0-1.2.3-1.2.7 0 .5-.7 1.7-1.6 2.8-1.2 1.6-1.7 1.7-2.3.7-.7-1.1-.9-1-1.4.3-.5 1-.3 1.4.4.9.7-.4 1-.1.7.7-.3.8-1.1 1.3-1.7 1.2-.6-.2-1.1.4-1.1 1.3s-.5 1.2-1.2.8c-.8-.5-.8-.1.2 1.2.8 1 1 1.6.6 1.2-.5-.4-1.5 0-2.3 1-.8.9-1.2 1.2-.9.6.3-.6-.1-1.1-.8-1.1-.8 0-1.2.6-.9 1.3.2.6-.1 1.5-.8 2-.8.5-1 .3-.5-.7.4-.8.1-.6-.7.3-.8 1-1.7 1.5-2.1 1.1-.4-.4-.4 0 0 1 .7 1.9-1.1 2.4-2 .4-.3-.6-.2.1.1 1.8.6 2.8.5 2.9-1.2 1.5-1.1-.9-1.6-1-1.1-.3.4.8.2 1.3-.5 1.3-.8 0-.8.4.1 1.5.7.9 1 1.8.6 2.2-.3.3-.6 0-.7-.8 0-.8-.5-.3-1.1 1.1-.6 1.4-1 2.8-1 3.2.1.5-.5.8-1.3.8s-1.5.5-1.5 1.1c0 .5.4.8.8.5.5-.3.9.1.9.9s-.3 1.2-.7 1c-.4-.2-.7.2-.7 1s.3 1.3.5 1c1.1-1 3.1 1.7 2.4 3.3-.5 1.5-.4 1.5 1.2-.1 1.8-1.8 3.6-1.5 3.6.6 0 .7-.4.6-1-.3-.5-.8-1-1-1-.4s.8 1.8 1.7 2.5c1.1 1 1.4 1 .9.1-.4-.6-.3-1.2.1-1.2.5 0 1.4.9 2 2 1.1 1.6 1 2.1-.3 2.8-1.5.8-1.5 1 0 1.5 1 .4 1.5.3 1.2-.2-.3-.5.1-1.4.9-2.1 1.2-1 1.5-.9 1.5.5 0 1.5.2 1.6 1.7.4 1.2-1 1.5-1.1.9-.1-.4.7-.2 1.9.4 2.7 1 1.1 1 1.5.1 1.5-.7 0-1 .4-.7.8.3.5-.8.8-2.4.7-1.6-.1-2.7.2-2.4.7.4.5 1.2.7 2 .4 2.2-.8 1.7.2-.7 1.5-1.3.7-1.9.7-1.5.1.3-.6.2-1.3-.3-1.7-.6-.3-.8-1.2-.5-1.9.3-.8 0-1.7-.7-2.2-.8-.4-1-.3-.5.4.5.8.1 1-1 .5-1.4-.5-1.6-.3-1.1 1.2.7 1.6.5 1.6-1 .4-1.3-1.1-1.5-1.1-.9-.1.9 1.4-2.1 5.5-3.4 4.7-.5-.3-.6.4-.3 1.5.3 1.2-.1 2.2-1.1 2.6-.9.3-1.4 1-1.1 1.4.3.5.1 1.1-.5 1.5-.5.3-1 .1-1-.5 0-.7-1-2.1-2.2-3.2-1.3-1.1-1.7-1.7-1-1.3.6.3 1.2.2 1.2-.3 0-1.1-6.9-2.6-7.8-1.8-.3.3 0 .6.6.6 1.7 0 1.5 3-.2 3.6-.8.3-1.3 1.1-1 1.7.2.7-1 1.8-2.6 2.6-1.7.7-2.9 1.6-2.6 1.9.3.2 1.4-.1 2.3-.9 1.6-1.3 1.7-1.2.4.3-.7 1-2.3 1.8-3.5 1.8-1.5 0-1.7.3-.8.9 1 .6.9 1.1-.4 2.2-1.2.9-1.5 1-1 .1.4-.6.3-1.2-.3-1.2-1.6 0-5.3 5.9-4.5 7.2.5.9.2.8-.9-.1-1.5-1.2-1.7-1.2-1.2.2.4.8.1 1.8-.6 2.3-.8.5-1 .3-.4-.6.5-.8.4-1.1-.3-.6-.6.3-.9 1.5-.7 2.6.3 1.4-.1 1.7-1.2 1.3-1.2-.5-1.4-.1-.9 1.8.3 1.3.3 1.8 0 1.1-.3-.6-1-1.2-1.5-1.2-.6 0-.7.5-.3 1.2.5.7.1.9-1.3.6-1.2-.3-2 0-2 .8 0 .7.5 1 1 .7.6-.3.7-.1.3.5-.4.6-1.4.8-2.3.5-1.2-.5-1.4-.3-.8.7.6 1 .3 1.2-1.3.8-1.5-.4-1.9-.2-1.5.8.6 1.7-1.3 1.9-2.1.1-.3-.6-.3-.1 0 1.2.4 1.6.3 2.1-.5 1.7-.6-.4-1.1 0-1.1.8 0 .9-.5 1.6-1.1 1.6-.5 0-.7-.5-.3-1.2.4-.7.3-.8-.5-.4-.6.4-.9 1.2-.6 1.7.4.5.1.9-.4.9-.6 0-1 .3-1 .7.1.5.1 1.7 0 2.8-.1 1.7-.3 1.8-1.1.5-.5-.8-1-1.3-1.1-1 0 .3-.2 1.4-.4 2.4s-1.2 2.6-2.1 3.5c-1.7 1.5-1.7 1.5-.5-.2 1.2-1.5 1.2-1.7-.3-1.1-.9.3-1.6 1.2-1.6 2 0 1-.8 1.3-2.4 1-1.9-.3-2.3-.1-1.9 1.1.4 1.1.2 1.4-.5.9-.7-.4-1.2-.2-1.2.4 0 .6-.4.9-.9.5-.5-.3-1.2-.1-1.6.5-.4.6-1.2.7-1.8.3-.7-.4-.5.2.3 1.2 1.4 1.7 1.4 1.8-.7.6-1.9-1-2.2-.9-1.7.4.4.9.2 1.5-.5 1.3-.6-.2-2.1.8-3.3 2.2-1.3 1.4-2 2.1-1.5 1.6.4-.6.7-1.5.7-2 0-.6-.9.2-1.9 1.8-1.1 1.7-1.8 3.3-1.5 3.7.2.4-.1 1.1-.7 1.5-.8.4-.9.3-.5-.4s.2-1.2-.3-1.2c-.6 0-1.1.6-1.1 1.4 0 .8-.7 1.7-1.6 2-.9.3-1.4 1.3-1.1 2 .3.8-.1 1.7-.9 2-.8.3-1.4 1.1-1.4 1.8 0 1 .3.9.9-.1.7-1 .9-.7.8 1.2-.1 1.5-.6 2.7-1.2 2.7-.5 0-.4.4.3.9 1.1.6 1 1-.3 1.5-1.2.4-1.4 1-.8 1.9 1.2 1.5 1.1 2.6-.5 5.5-.7 1.2-1.7 2-2.2 1.7-.6-.4-2 .1-3.2.9-1.2.9-1.8 1.6-1.2 1.6.5 0 1.6-.6 2.4-1.3.8-.6.7-.3-.3.9-.9 1.1-1.4 2.4-1 2.7.3.4-.1.7-1 .7-1 0-1.4.5-1.1 1.5.4.8.3 2.2 0 3.1-.5 1.4-.9 1.4-2.4.3-1.4-1.1-1.5-1.1-.4.1 1.4 1.7 1.6 3.4.2 2.5-.5-.3-1 .2-1 1.1 0 1.6-.1 1.6-1.6-.2-.8-1-1.3-1.3-.9-.6.7 1.4-.8 3.1-4.7 5.1-1.6.8-2.6 1.6-2.3 1.9.2.3 1.3-.1 2.2-.9 1.6-1.3 1.7-1.2.4.3-.7 1-2.2 1.8-3.2 1.8s-2.1.4-2.4 1c-.4.6.1.7 1.2.3 1.7-.7 1.7-.6.2 1.7-.9 1.4-2.1 2.5-2.7 2.5-.6 0-1.4.4-1.9.9s-.3.6.5.2c.6-.4 1.2-.2 1.2.4 0 .7-.7.9-1.6.6-.9-.3-1.7-.6-2-.6-.2 0-.1-.7.3-1.5.3-.9.2-1.5-.3-1.4-2 .3-3.2-.2-3.8-1.7-.5-1.4-.4-1.5.9-.4 1.9 1.6 2 .6 0-1.3-1.9-1.9-2.7-6.5-1.3-7.3.7-.5.8-.2.3.6-.5.9-.4 1.1.4.6.9-.6.9-1.1.1-2.1-.9-1-.7-1.6.9-2.4 1.3-.8 1.8-1.7 1.4-2.8-.4-.9-.2-1.4.3-1.1.5.4 1.8-.1 2.9-.9 1.9-1.5 1.9-1.5-.5-.9l-2.5.7 2.3-1.4c1.2-.7 1.9-1.7 1.5-2.2-.4-.4.1-.5 1.1-.1 1.5.5 1.7.4.7-.8-.9-1.1-.8-1.5.5-2s1.4-.9.4-2.1c-.9-1.1-.9-1.5-.1-1.5.9 0 .9-.5 0-2.1-.8-1.5-.8-1.9 0-1.5.6.4 1.1 0 1.1-.9s-.4-1.4-.8-1.1c-.9.6-.8-3.6.1-5.1.4-.7 0-1.6-.9-2.1-1.1-.6-1.5-1.6-1.1-2.6.4-1 .3-1.5-.3-1.1-.6.3-1 .1-1-.5s-.4-.9-.9-.6c-.5.4-.7-.3-.4-1.4.4-1.5 0-2-1.3-2-1.6 0-1.7-.2-.4-1 1.3-.8 1.2-1-.2-1-1 0-1.8-.7-1.8-1.6 0-.8-.5-1.2-1.1-.9-.6.4-.9.1-.8-.6.1-.8-.1-2.2-.6-3.2-.6-1.4-1-1.5-1.5-.6-.6.9-1.2.8-2.5-.4-1.1-1.1-1.2-1.7-.4-1.7.7 0 .9-.3.6-.6-.4-.4-1.2-.2-2 .4-1 .8-1.6.6-2.7-1.1-1.2-2-1.2-2.1.3-.8 2.1 1.7 2.2.8.1-1.3-.8-.9-1.1-1.6-.5-1.6.6 0 .9-1.3.7-3-.2-2.2.1-3 1.3-3.1 1.2 0 1.1-.2-.4-.9-1.1-.5-1.4-.9-.8-.9.9-.1 1-.8.2-2.8-.5-1.4-.6-2.9-.2-3.2 1.1-.8 1-3.8-.1-4.8-.5-.5-.6-.2-.1.7.5.8.4 1.2 0 .7-.5-.4-1-1.7-1.2-2.9-.3-1.8-.1-1.9 1.4-.7 1.6 1.1 1.6 1.1.5-.1-.7-.8-1.8-1.5-2.5-1.5-.7-.1-1.1-.7-.9-1.4.1-.7-.8-2.1-2-3.2-1.3-1.1-1.7-1.8-1-1.4.6.3 1.2.1 1.2-.4 0-.6-.5-1.1-1.1-1.1-1.1 0-3.9-2.5-3.9-3.5 0-.3.6-.3 1.3.1.8.5.8.2-.2-.9-1.5-1.9-2.6-2.3-1.5-.6.4.7.1 1-.7.7-.8-.3-1.3-1.3-1.1-2.2.3-1.6.1-1.6-1.5.1-1.1 1-1.5 1.9-1.1 2.1.4.2.8.8.8 1.3 0 .6-.4.7-1 .4-.6-.4-1 .5-1 2 0 2-.4 2.6-1.5 2.2-1.1-.5-1.2-.1-.4 2 .8 2.2.8 2.4-.5 1.4-1.2-1-1.4-.9-.9.8.4 1.6.1 2.1-1.3 2.1-1.6 0-1.7.2-.4 1 1 .6 1.1 1 .2 1-.6 0-1.1.5-1 1.2.2.7-.3 1.2-1 1.3-.7 0-1.8 1.1-2.5 2.5s-2 2.4-2.9 2.4c-1.1-.1-1.4.4-1 1.4.4 1.1.1 1.4-.9 1-1-.4-1.5.1-1.6 1.5-.1 1.1-.7 2.5-1.4 3.1-.9.8-1 .7-.4-.4.8-1.3.7-1.3-.8-.1-1.8 1.5-2.3 2.6-.7 1.6 1.7-1.1 1.1 2.1-1 4.7-1 1.4-1.6 2.8-1.3 3.2.3.3.1.6-.7.6-.8 0-.9.4-.3 1.2.6.7.9 2.8.7 4.5-.1 2 .2 3.3.9 3.4.7 0 .3.4-.8.9-1.7.7-1.7.9-.2.9 1 .1 1.7.9 1.7 2.2 0 1.1.5 1.7 1 1.4 1.3-.8 1.3.5 0 2.5-.7 1.1-1 1.1-1 .2 0-.7-.4-1.1-.9-.7-.5.3-1.3 0-1.7-.6-.4-.8-.3-.9.4-.5s1.2.2 1.2-.3c0-.6-.8-1.1-1.7-1.1-1.6 0-1.6-.2-.3-1.1 1.2-.9 1-1-.8-.6s-2.1.3-1.2-.8c.8-.9.6-1.4-.5-1.9-.9-.3-1.3-.2-1 .4.3.6.4 1 .1 1-.3 0-1-.9-1.6-2-.9-1.6-.8-1.9.6-1.3 1.2.4 1.5.3 1-.5-.4-.7-1.6-1.2-2.7-1.2-1.3 0-1.8.4-1.3 1.2.5.7.2.9-.9.5s-1.4-.2-1 .9c.3.7.8 1.4 1.2 1.4.4 0 .7.9.7 1.9 0 1.1-.4 1.7-.8 1.5-1.3-.8-.9 1.1.5 2.5 1 1.1 1 1.3 0 .7-.9-.5-1.3.2-1.3 2.3 0 1.7-.5 3.1-1.1 3.1-.5 0-.7.6-.3 1.2.6 1 .4 1-.8 0-1.4-1.1-1.6-1-1.1.9.5 1.7.3 2-.7 1.4-.9-.5-1.1-.4-.6.3.4.7.2 2-.3 2.9-.7 1.2-1 1.4-1.1.4 0-.8-.9-.3-2.1 1.3-1.1 1.4-1.8 2.9-1.5 3.4.3.4-.5 1.9-1.7 3.3s-1.7 1.8-1.2.9c.9-1.3.8-1.3-.8-.1-1 .8-1.6 2-1.3 2.8.3.8.2 1.2-.2 1-.4-.3-1.6.4-2.7 1.5-2 1.9-2 1.9 0 1.3 2-.6 2-.6.1.9-1 .8-2.2 1.3-2.7 1.1-.4-.3-1.1 0-1.5.6-.4.7-.3.9.2.6.6-.3 1.6-.2 2.4.4 1.3.7 1.2.9-.1.9-2 0-5.3 4.6-3.9 5.5.6.4.6 1.3 0 2.5-.6 1.1-1.5 2.9-2.1 4.1-.7 1.5-.7 1.9 0 1.4.6-.3 1.1-.1 1.1.4 0 .6-.5 1.1-1.1 1.1-.8 0-.7.6.2 1.7 1.2 1.5 1.2 1.6-.3 1-1.2-.4-1.5-.2-1.1.8.3.8.9 1.2 1.4.9 1.6-1 .9.9-.8 2.2-1.7 1.3-1.7 1.4.1.7 1.6-.5 1.8-.3 1.4 1.5-.3 1.2-.3 2 .1 1.9.3-.1.6.3.6.8 0 .6-.3.9-.7.8-.3-.1-1.2.5-2 1.5-1.2 1.5-1.1 1.6.5.3 1.2-.9 1.7-1 1.7-.2 0 .7.5.9 1.2.5.6-.4.8-.3.5.3-.5.8-3.9 1-5.7.3-.3-.1-.8-.2-1.2-.1-.5 0-.8-.6-.8-1.5 0-.8-.3-1.3-.7-1.1-.5.3-1.7-.4-2.8-1.5-1.9-1.9-1.9-1.9 0-1.2 1.7.7 1.8.6.5-.8-.8-.9-1.8-1.4-2.2-1.1-1.2.7-.9-1.2.3-2.4.9-.9.7-1.1-.7-.9-1.1.2-1.8 1.1-1.8 2 .1.9-.6 1.6-1.5 1.6-1.4 0-1.4.2-.1 1 1.2.8 1.1 1-.7 1-1.3 0-2.3.4-2.3 1 0 .5.5 1 1 1 .6 0 .2 1-1 2.2-1.1 1.2-2 2.7-2 3.2 0 .6.5.4 1-.4.6-.9 1-1 1-.3 0 .6-.5 1.5-1.1 1.8-.6.4-.8 1.3-.5 2.1.3.7 0 1.6-.6 2-.7.5-.8.2-.3-.6s.4-1.1-.3-.6c-.6.4-.8 1.4-.5 2.3.4 1 .2 1.4-.4 1-.5-.3-1 0-1 .8s.4 1.2.8.9c.4-.2 1 0 1.4.6.3.5-.2 1-1.2 1-1.5 0-1.6.2-.3 1s1.2 1-.3 1c-1 0-1.5.5-1.2 1 .4.6 1 .8 1.4.6.4-.3.8.2.8 1s-.6 1.3-1.3 1c-.8-.3-1.1 0-.7.9.3.8.8 1.3 1.3 1 .4-.2.6 1.4.4 3.6-.2 2.2 0 3.7.4 3.5.4-.2.8.4.8 1.4 0 1-.3 1.7-.6 1.5-.4-.2-.7.3-.7 1.1s.6 1.3 1.4 1c1.1-.4 1.1-.1.2 1.5-.6 1.1-.8 2.3-.5 2.7.3.3.6 0 .6-.7s.5-.9 1-.6c.7.4.6 1.3-.1 2.7-.8 1.5-.8 1.9 0 1.4.6-.4 1.1-.1 1.1.8 0 .8-.3 1.6-.7 1.9-.5.2-.3.2.4.1.7-.2 1.5.1 1.8.6.4.6.1 1-.5 1-.7 0-.6.5.2 1.4.7.8 1.8 1.1 2.3.8.6-.3.4.2-.4 1.1-.9 1.2-1 1.7-.2 1.7.7 0 .9.4.6 1-.3.5.1 1 1.1 1 1.4 0 1.4.3.4 1.5-1.1 1.3-1 1.4.3 1 .8-.4 1.8-.1 2.3.6.4.7.3 1-.3.6-.5-.3-1 0-1 .8s.4 1.2.9.8c.5-.3 1.8.4 2.9 1.6 1.1 1.2 1.5 2.1 1 2.1-.6 0-1.5-.8-2.1-1.8-.8-1.1-1-1.2-.7-.2.2.8 1.3 2 2.5 2.6 1.2.6 1.9 1.4 1.4 1.9-.4.4.1.5 1 .2 1.1-.4 1.5-.2 1.2.6-.2.7.8 2 2.3 2.9 4.2 2.5 8.4 6.8 7.8 7.9-.4.5.1.9 1 .9 1 0 1.3-.5.9-1.2-.5-.7-.3-.8.5-.4.7.5 1 1.4.7 2.1-.3.9.2 1.1 1.6.7 1.4-.3 1.9-.1 1.4.6-.6 1 2.6 2.5 5.6 2.7.3 0 1 .4 1.5.9s.2.6-.6.1c-.9-.5-1.2-.4-.7.3.4.6 1.3.9 2.1.5.8-.3 1.5 0 1.5.6s.3 1 .8 1c.4-.1 1.8-.1 3.1 0 1.9.1 2.2.5 1.8 2.3-.5 1.9-.4 2.1.6.8 1.3-1.6 4.2-2.7 3.3-1.2-.2.4-.1 1.4.5 2.2.7 1.2.9 1.1.9-.5 0-1.7.2-1.7 1-.5.9 1.3 1 1.3 1 0s.2-1.3.9-.1c.5.8 1.6 1.1 2.6.7 1.4-.5 1.5-.4.7.7-.8 1-.6 1.3.8 1.3 1 0 1.7-.3 1.4-.7-.3-.6 2.6-.5 3.4.1.1.2 1 .3 2 .4.9.1 2.7.7 3.9 1.4 1.7.9 2.2.9 2.6-.1.4-.7.6-.6.6.4.1.9-.6 2-1.5 2.3-2.4.9-3.1.7-1.4-.4 1.3-.8 1.3-1-.1-1-.9 0-1.9.3-2.3.7-1.1 1.1-4 1.3-5.2.2-.8-.6-1.4-.6-1.8 0-.7 1-2.5.9-4.3-.2-1.3-.8-1.7-.2-1.4 1.8.1.5-.6.1-1.4-.9-1.4-1.8-1.5-1.8-1.5-.2 0 .9-.5 1.4-1.1 1.1-.5-.4-1.8 0-2.8.9-1.9 1.7-5.6 1.2-4.4-.7.3-.6.1-.7-.6-.3-.9.6-.9 1.1-.1 2.1 1 1.1.8 1.3-.9 1-1.4-.3-1.9 0-1.5.7.5.8.1.9-1.1.4-1.6-.6-1.6-.4-.4 1.1 1.2 1.5 1.2 1.6-.2 1.1-.9-.4-1.6-.1-1.6.8 0 .7.4 1.1.9.8.4-.3.8.6.8 2 0 3.2 1 5.6 2.3 5.6.7 0 .7-.4-.1-1.2-.7-.7-1.2-1.7-1.2-2.2 0-.6.7 0 1.6 1.2.8 1.2 1.2 2.7.9 3.2-.3.6.1 1 .9 1 1.4 0 2.1 1.9 1.7 4.3-.1.5.3.5.9.2.7-.4 1 0 .8 1-.2 1 .4 2 1.2 2.2 1.3.4 1.3.3 0-.6-.8-.6-1-1.1-.4-1.1 2 0 2.4 1.3 1 3.5-1.2 1.8-1.2 2.2-.1 2.2.8 0 1.1-.5.8-1.1-.4-.6-.2-.7.3-.3.9.9 1.1 1.4 1.3 4.8 0 1.1.5 1.8.9 1.5.4-.2.9.5.9 1.7.2 1.7 0 1.9-.7.7-1.4-2.1-1.2-.3.2 2.3 1.4 2.7 1.7 8.9.3 7.7-.6-.5-1 .3-1.1 2.1-.1 1.7-.7 3.6-1.4 4.2-1 1-1.2.8-.7-.6.9-2.5.4-2.1-2.3 1.5-1.2 1.8-1.7 2.7-.9 2 .7-.6 1.7-1.2 2.3-1.2.5 0 .1.6-.9 1.4-1.1.8-2.3 1.2-2.6 1-.4-.2-1.3.3-2 1.2-1.7 2.1-2.1 4.6-.6 3.7.8-.5.8-.2 0 .9-.7.8-1 1.8-.6 2.2 1.1 1.1 1 4.6-.1 4.6-.6 0-.4.5.4 1 1.7 1.1 2 3 .8 4.7-.6.7-.4 1.4.3 1.9.8.4.9.3.5-.4s-.2-1.2.3-1.2c.6 0 1.1.7 1.1 1.5s.4 2.3.9 3.3c.5.9 1.2 2.5 1.5 3.5.3 1 1 1.5 1.6 1.2.6-.3.7.1.4 1-.4 1-.2 1.5.7 1.3.9-.2 1.3.4 1.1 1.6-.2 1.2.1 1.6.9 1 .8-.4 1-.3.5.5-.4.6-1.1.9-1.6.6-.5-.3-2.2 1.1-3.8 3.1-1.8 2.2-3.2 3.2-3.6 2.5-.4-.6-1.2-1.1-1.7-1.1-.6 0-.8.4-.5.8.3.5-.1.9-.9.9s-1.2-.4-1-.8c.3-.4-.2-.9-1-1.2-.9-.4-1.2-.1-.9.8.6 1.4-1.2 1.5-3.3.2-.6-.4-1.4-.1-1.6.5-.4 1-.6.9-.6-.1-.1-1-.4-1.1-1.5-.2-1 .8-1.6.9-2.1.1-.3-.5-1.1-1-1.6-1-.6 0-.8.4-.5.8.3.5-.1.9-.9.9s-1.2-.4-.9-.9c.3-.4 0-.8-.5-.8-.6 0-1.1.5-1.1 1.1 0 .6-.5.7-1.2.2-.7-.4-2.2-.9-3.3-1-1.6-.3-1.7-.1-.5.7.8.5 1.1 1 .6 1-.5 0-1.8-.8-2.8-1.7-1.5-1.4-1.8-1.4-1.3-.2.4 1 0 1.6-.9 1.6-.8 0-1.3-.3-1.1-.7.2-.3-.7-.6-2-.6s-2.2.3-2 .6c.2.4-.2.7-1 .7s-1.2-.4-1-.8c.3-.4-.2-.9-1-1.2-.8-.4-1.2-.1-.9.6.3.8-.5 1.3-1.8 1.4-1.3.1-3.3.5-4.5.8-1.8.4-2.1.2-1.6-1.2.5-1.5.3-1.5-1.1.2-1 1.1-1.5 1.4-1.1.7.3-.6.2-1.2-.4-1.2-.5 0-1.1.5-1.3 1.2-.3.8-1.3.7-3.6-.4-2.2-1.1-3.4-1.3-3.8-.6-.4.7-.2.8.4.4.7-.4 1.2-.2 1.2.3 0 1.3-.2 1.3-3.4.1-1.4-.5-2.6-.6-2.6-.1 0 .4-.6.8-1.2.8-.7 0-2.2.4-3.3.8l-2 .8 2-1.7c2-1.7 2-1.7-.1-.7-1.2.6-2.5.7-2.9.3-.5-.4-.4 0 0 .8.8 1.3.7 1.3-.8.1-.9-.7-1.7-.9-1.7-.4s-.7 1-1.5 1-1.5-.3-1.5-.7c0-.3-.9-.6-1.9-.6-1.1 0-1.7.4-1.5.8.3.4-.3.9-1.3.9-1 .1-3.2.2-5 .4-1.8.1-3-.2-2.7-.6.9-1.5-1.4-1-2.9.6-1.2 1.1-1.7 1.2-2 .2-.4-.9-.8-.8-1.6.3-.7 1-1.1 1.1-1.1.2 0-.6-.5-1.2-1.1-1.2-.5 0-.8.4-.5.8.3.5-.1.9-.9.9s-1.2-.3-1-.7c.2-.4-.2-.7-1-.7s-1.2.4-.9.9c.3.4-.3.8-1.3.9-1 0-2.7.2-3.8.4-1.1.2-2.2-.1-2.6-.6-.4-.7-1.2-.4-2.3.6-.9.9-1.6 1.2-1.6.7s-.7-.9-1.5-.9-1.2.4-.9.9c.3.4.1.8-.5.8-.5 0-1.2-.6-1.5-1.3-.3-.8-.9-.6-2 .7-1.6 2-1.6 2-1.7 0 0-1.8-.1-1.8-.9.1l-.9 2-.1-2c-.1-1.9-.2-1.9-.9-.1-.6 1.5-.9 1.7-1.6.6-.6-1-1.1-.9-2.2.5-.7 1.1-1.3 1.4-1.3.8 0-1.3-2.5-1.1-3.7.2-.4.4-.2.5.6 0 .9-.5 1.2-.4.7.3-.4.8-1.5.8-3.1.2-1.4-.5-2.5-.6-2.5-.1 0 1-1.9.9-3.7-.2-.9-.6-1.1-.3-.7.8.5 1.1.2 1.4-1.2.8-.9-.3-1.5-.2-1.2.3.4.5-.8.8-2.5.8-1.9-.1-3.1-.6-2.9-1.4.1-.6-.2-.9-.7-.5-.6.3-.7 1.3-.4 2.2.5 1.2.3 1.4-.8.8-.8-.4-1.1-.5-.7 0 .4.4.3 1.4-.3 2.1-.7.8-.6 1.4.2 2 .7.4.9.3.6-.3-.8-1.3 5.9-2.3 7.2-1 .5.5 1.2.4 1.6-.4.6-.8.4-1-.5-.4-.9.5-1.1.4-.6-.4.6-.9 1.1-.9 2.2 0 .8.6 1.7.9 2.1.5.3-.3 0-.6-.8-.7-.8-.1-.3-.4 1.1-.8 1.4-.5 3.3-.4 4.2.1 1.1.5 2.2.3 3.1-.7.8-.8 1.8-1.1 2.1-.8 1 1.1 3.7 1.2 3 .2-.3-.5.1-.9 1-.9.8 0 1.7.6 1.9 1.2.3.8.6.6.6-.4.1-1.1.6-1.5 1.6-1.2.8.4 1.2 1.1.8 1.8-.4.6.2.4 1.3-.4 3-2.2 3-2.4.9-1.6-1.6.6-1.8.5-.7-.5.9-1 1.5-1 2.4-.1 1.6 1.6 3.1 1.5 2.2-.1-.6-.9-.4-.9.7 0 .7.7 1.8 1.3 2.3 1.3.6 0 .4-.5-.4-1.1-1.2-.8-1-1 1-.6 1.4.2 3.3.8 4.2 1.2 1.3.5 2 .1 2.5-1.1.5-1.2 1.9-1.9 3.5-2 1.5-.1 2.6.2 2.3.5-.2.4.7.7 2 .7s2.2-.3 1.9-.7c-.7-1.2 2-1.7 3.9-.7 1 .5 1.7.5 1.7-.1 0-1.1 1.9-.9 3.9.3 1 .6 1.2.5.7-.2-.9-1.5-.1-1.5 2.7 0 1.9.9 2 .9 1-.3-.9-1.1-.6-1.4 1.4-1.6 1.9-.1 2.2.1 1.2.8-.8.5-.9.9-.3.9.5 0 1.5-.5 2.2-1.2.9-.9 1.2-.8 1.2.4 0 .9.5 2 1.1 2.4.8.4.9-.1.4-1.6-.6-1.7-.4-2.1.6-1.4.8.5 2.6.9 4 .9 2 .1 2.5-.3 2.1-1.5-.5-1.3-.4-1.3 1.3 0 1 .8 1.6 1 1.2.3-.8-1.2 2.2-1.1 4.3.2.6.3 1 .1 1-.6 0-.9.3-.9 1.4 0 .8.7 1.7.8 2 .3.3-.5 2.8-.7 5.6-.6 3.8.3 4.9 0 4.4-.9s-.4-.9.7.1c1.5 1.4 3.3 1.6 2.4.3-.6-1.1 5.1-.9 6.1.2.4.4 1.4.7 2.3.7 1.4 0 1.4-.2.1-1-.9-.6-1-1-.3-1 .6 0 1.5.5 1.8 1 .5.8 1.1.8 2 0 1-.8 1.5-.8 2 0s1 .8 2 0 1.5-.8 2 0 1 .8 2 0 1.4-.7 1.8.7c.4 1.6.5 1.6.6-.2.1-1.7.3-1.8 1.2-.5.8 1.2 1.2 1.2 1.6.2.4-1 .9-.9 1.9.5 1.2 1.5 1.3 1.5.8.2-.4-1.3 0-1.7 1.9-1.5 1.4 0 2.3.4 2 .8-.2.5 0 .8.6.8.5 0 1.2-.6 1.4-1.3.4-.9.6-.9.6.1.1.9.7 1 1.9.4 1.5-.7 4.2-.8 7-.3.4.1-.4 1-1.8 2.1-2.3 1.8-2.3 1.9-.3 1.4 1.6-.4 2.1-.2 1.9 1-.1.8-.6 1.9-1.1 2.3-.4.5-.5.1 0-.7.5-.8.4-1.2 0-.7-1.1.9-1.6 3.9-.6 3.3.4-.3.7.6.7 2 0 1.7-.4 2.3-1.4 1.9-1.2-.4-1.2-.2-.3.8.9 1.1.7 1.7-.6 2.8-1.1.9-1.4 1-.9.1.4-.6.3-1.2-.3-1.2-.5 0-1.2.6-1.4 1.2-.4 1-.6.9-.6-.1-.1-1.1-.4-1.1-1.8 0-1.5 1.2-1.6 1.2-.8-.1s.7-1.3-.8-.1c-1.4 1.1-1.7 1.1-1.7 0s-.2-1.1-1 .1c-.8 1.3-1 1.2-1-.3 0-.9-.4-1.7-1-1.7-.5 0-.6.8-.3 1.7.6 1.6.5 1.7-1.2.3-1.1-.9-1.6-1-1.1-.3.4.7.2 1.4-.3 1.4-.6.1-1.7.2-2.3.3-.7.1-2.1-.5-3.1-1.3-1.6-1.3-1.7-1.3-1.2 0s-.3 1.5-4.7 1.2c-3.8-.3-4.9-.1-3.8.6 1.2.8.9 1-1.1.7-1.3-.1-3.1-.6-3.8-1.1-1-.5-1.2-.4-.7.3.9 1.5.1 1.5-2.4.2-1.5-.8-1.8-.7-1.4.3.4 1.1-.4 1.3-4.1.7-2.7-.4-4.8-.3-5.2.3-.4.6-.1.7.7.2.8-.5 1.1-.4.7.2-.7 1.1-4.6 1.1-6.4 0-.8-.5-1.3-.4-1.3.2 0 .6-.5 1.1-1.1 1.1-.5 0-.7-.6-.3-1.3.4-.6-.2-.4-1.3.6s-2.7 1.5-3.7 1.1c-.9-.3-2.4 0-3.3.7-1.5 1.2-1.6 1.2-1-.5.6-1.6.5-1.7-.7-.7-.8.7-2.1.9-2.7.5-.8-.4-.9-.3-.5.4s.2 1.2-.3 1.2c-.6 0-1.1-.6-1.1-1.3 0-.8-.3-.8-.9.2-.5.8-2.1 1.5-3.5 1.7-1.5.1-2.4-.2-2.1-.7.4-.5.1-.9-.4-.9-.6 0-1.1.5-1.1 1.1 0 .5-.5.7-1 .4-.5-.3-1-.2-1 .4 0 .7-.8.7-2.5.1-1.6-.6-2.7-.6-3.1.2-.4.6-.3.8.4.4.6-.3 1.3-.2 1.6.2.3.5-.7.8-2.2.7-1.5-.1-2.6-.7-2.4-1.4.1-.7-.2-.9-.8-.6-.6.4-.9 1.3-.6 2 .6 1.6-1.6 1.4-3.7-.3-1.2-1-1.7-1-2.3-.1-.4.8-.3.9.4.5s1.2-.2 1.2.3c0 .6-.7 1.2-1.5 1.2-.8.1-2.1.2-2.7.3-.7.1-1.9-.3-2.7-.8-1.1-.8-1.3-.8-.8.1.4.6.3 1.4-.3 1.8-.5.3-1 0-1-.7 0-.9-.3-.9-1 .2-.9 1.3-1 1.3-1 0 0-1.1-.2-1.2-.8-.2-.5.7-1.8 1.4-3 1.7-1.2.2-2.7.7-3.4 1.1-.6.4-.8.3-.4-.4.4-.6-.1-1-1.3-.9-1.1 0-1.8.4-1.5.8.2.4-.9.9-2.6 1.1-1.6.2-2.7.1-2.4-.4.3-.4-.2-.5-1-.2-.9.3-1.3 1-1 1.5.3.5 0 .9-.5.9-.6 0-1.1-.5-1.1-1.1 0-.6-.7-.3-1.6.5-1.8 1.9-2.8 2.1-1.8.4.4-.7-.9-.3-2.9.9-2.5 1.5-3.4 1.8-3 .7.4-1 0-1.2-1.1-.8-.9.3-1.6 1.1-1.6 1.6 0 .7-.5.6-1.4-.1-1-.9-1.5-.8-1.9.3-.4.9-1.5 1.3-2.7 1.1-1.1-.2-2 .1-2 .6 0 .6-.5.7-1 .4-.6-.4-.7-1.2-.3-1.8.4-.7 0-.6-1 .2-1.8 1.5-2.3 2.6-.7 1.6.6-.3 1-.1 1 .4 0 1.5-1.3 1.4-2.9-.2-1.1-.9-1.3-.9-.7 0 .5.8.1 1.3-1 1.3-1.4 0-1.5.2-.3 1.7 1 1.1 1 1.4.2.9-.7-.4-1.3-.3-1.3.3 0 1.3 6.3.7 6.8-.7.2-.8.9-.9 2.2-.2 1.3.7 2.1.7 2.5 0 .4-.6 1.1-.7 1.7-.4.7.5.9.2.6-.7-.5-1.2.2-1.5 2.8-1.2 2.5.1 3.3-.1 2.8-1-.4-.7-.4-.9.1-.5.4.4 1.7.3 2.8-.3 1.4-.8 1.8-.8 1.3 0-.4.6 0 1.1.9 1.1s1.3-.5 1-1c-.3-.6-.1-1 .4-1 .6 0 1.1.4 1.1 1 0 .5.9.1 2.1-1.1 2-2 2.1-2 4-.3s2 1.7 1.3-.2c-.7-1.6-.6-1.7.8-.6 1.3 1 1.8 1 2.4.1.5-.8.3-.9-.6-.4-.9.5-1.1.4-.6-.4.6-.8 1.2-.9 2-.2.9.7 1.6.7 2.4-.1 1.4-1.4 4.4-2 3.6-.7-.3.5 0 .9.5.9.6 0 1.1-.6 1.1-1.3 0-.8.7-1.4 1.5-1.4 1.1 0 1.2.4.3 1.4-.8 1.1-.7 1.2.6.7.9-.3 1.6-1 1.6-1.5 0-1.1 3.7-1.2 4.3-.2.2.5.2.2.1-.5-.2-.6 0-1.2.4-1.3.4 0 1.5-.2 2.4-.4 1-.2 2 .1 2.4.6.3.5 1.1.9 1.7.9.7 0 .6-.4-.3-1-1.3-.9-1.3-1 0-1.1.8 0 2.8-.2 4.3-.3 1.6-.1 3.1.2 3.4.7.3.4 1.4 0 2.6-1 1.4-1.3 1.8-1.4 1.3-.3-.5 1-.2.9.7-.2 1.2-1.6 1.6-1.6 3.5-.2 2 1.4 2.1 1.3 1.5-.2-.5-1.4-.3-1.5 1.4-.6 1.3.7 2.4.7 3.4 0 1.1-.8 1.1-.9-.3-.4-1 .3-2 .2-2.2-.3-.7-1 5.5-.8 7.3.3 1 .6 1.2.5.7-.2-.7-1.2 1.1-1.7 4.2-1.3.8.1 2.1-.4 3-1.1 1.2-1 1.4-1 .8-.1-.4.7-.3 1.3.3 1.3.5 0 1.2-.6 1.4-1.3.4-.9.6-.9.6.1.1 1 .6 1 2.2.1 1.3-.6 1.9-.7 1.5-.1-.7 1.2 2 1 3.1-.3.4-.4.2-.5-.6 0-.9.5-1.2.4-.8-.3.8-1.1 2.5-1.1 4.5.1.7.5 1.2.4 1.2-.2 0-.6.4-1.1 1-1.1.5 0 .7.8.3 1.7-.5 1.5-.3 1.4 1-.2.9-1.1 1.7-1.6 1.7-1.2 0 .4.9.3 2-.3 1.5-.8 2-.8 2 .1 0 .8.4.8 1.5-.1 1.2-1 1.8-1 3 0 1.1.9 1.5.9 1.5.1 0-.7.5-.9 1-.6.6.3 1 0 1.1-.7 0-.7.4-.4.9.7.6 1.3.9 1.5.9.5.1-1 1.2-1.5 3.5-1.5 1.9 0 3.3.2 3.1.5-.2.3.6.7 1.8.7 1.5.2 1.8 0 .9-.6-1-.6-.8-1 .7-1.4 1.2-.3 2.4-.1 2.7.4.3.5 1 .9 1.5.9.6 0 .8-.4.5-.9-.9-1.5 1.9-.7 4.5 1.2 2.1 1.6 2.1 1.6.2.7-2.7-1.3-4.4-1.3-2.1 0 1 .6 1.4 1.8 1.1 3-.3 1.1 0 2 .6 2s1.1.9 1.1 2.1c0 1.5.5 1.9 1.5 1.5 1.2-.4 1.3-.2.6 1.3-1.1 1.9-.5 3.1 1.3 3.1.6 0 .5-.4-.3-.9-.7-.5-.9-1.1-.5-1.3.5-.3 1.8.4 2.9 1.5 1.1 1.1 1.5 1.7.8 1.3-.6-.3-1.5-.2-1.8.4-.4.6-.3 1 .2.9 3.3-.6 5.3.3 5.4 2.3.1 1.9.2 1.9.6.5.5-1.8.5-1.8 2 0 .8 1 1.2 1.2.8.5-.3-.6-.1-1.2.4-1.2.6 0 1.1.4 1.1 1 0 .5.7 1 1.5 1s1.5.4 1.5 1c0 .5.7 1 1.5 1 .9 0 1.2.6.8 1.7-.4 1.1-.3 1.4.5.9.8-.5 1.2.1 1.2 1.7 0 1.4.8 3.1 1.8 3.8 1.4 1.1 1.5 1.1.5-.1-.7-.8-1.3-1.9-1.3-2.5 0-.5.6-.1 1.3 1 1.1 2 1.3 2.5 1.6 4.5 0 .5.6 1 1.2 1 .5 0 .7-.5.3-1.2-.5-.7-.3-.8.5-.3.9.5.9 1.1.3 1.7-1.2 1.2.8 3.8 2.8 3.8.6 0 .9.4.6.8-.8 1.3 3.3 4.4 4.7 3.5.7-.4.7 0-.2 1-1.2 1.5-1 1.8 1.4 2.7 1.9.7 2.5 1.5 2.1 2.7-.6 1.4-.4 1.4 1.1.2 1.1-.9 1.4-1 .9-.2-.4.8-.2 1.3.4 1.3.7 0 .9.7.6 1.6-.3.8-.2 1.3.2 1 1.1-.7 5.4 2.3 4.8 3.3-.3.4.8.7 2.3.6 2.3-.1 2.7.2 2.3 1.7-.3 1.3.1 1.8 1.7 1.8 1.1 0 3.8 1.6 5.9 3.5 2.2 1.9 4.3 3.1 4.7 2.7.5-.4.5-.1.1.5-.5.9 0 1.3 1.6 1.3 1.8 0 2 .2.8 1s-1.1 1 .8 1c1.2 0 2.4-.1 2.6-.3.2-.1 1.3.6 2.3 1.6 1.1.9 2.4 1.4 2.8 1 .5-.5.3 0-.4 1-.8.9-1.1 2-.7 2.4.3.3.6.1.6-.5 0-.7.5-1.2 1.1-1.2.5 0 .8.4.5.9-.3.5.1 1.2 1 1.5.8.3 1.3.2.9-.3-.3-.5.3-.8 1.2-.6 1 .2 2.1.4 2.5.4.5.1.7.4.7.8-.4 2.6.4 3.3 4.2 3.3 2.2 0 3.8.4 3.5.9-.3.5.1 1.2 1 1.5.8.3 1.3 1 1 1.5-.3.5.3.7 1.4.4 1.1-.3 2-1 2-1.7 0-.6.5-.3 1.1.6 1.1 2 1.2 3.3.2 3.4-1.5.2-4.9 1.8-8.2 4.1-1.8 1.2-3.7 2.1-4.1 1.8-.4-.3-.7.9-.6 2.5.2 2.2-.2 2.9-1.1 2.5-.9-.3-1.1 0-.6.7 1.1 1.9 1.1 4.8 0 5.5-.6.4-.7.1-.2-.7.5-.8.4-1.1-.3-.6-1.1.7-.7 3.1 1 5.3.6.7.5 2-.2 3.4-.7 1.2-.8 1.9-.2 1.5 1.6-1 2.1 1.7.6 3.5-1.2 1.3-1.2 1.6.1 1.6.8 0 1.1-.5.8-1-.3-.6-.2-.7.4-.4 1.4.9 1.4 6.5.1 7.3-.8.5-.9.1-.4-1.1.5-1.4.4-1.6-.7-.7-1.1.9-1.9.7-3.5-1.1-1.1-1.2-2.8-2.8-3.7-3.5-.8-.7-1.3-1.9-.9-2.5.3-.7-.2-.3-1.1.8-1 1.1-1.5 1.4-1.3.6.2-.8-.4-2.3-1.4-3.3-1.5-1.5-1.6-2.2-.7-4.1.6-1.2.8-1.9.4-1.5-.4.4-1.6-.2-2.6-1.3-1.2-1.4-2.5-1.9-3.5-1.5-1.5.6-1.5.4-.3-1.1s1.2-1.6-.5-1c-1.6.6-1.7.5-.6-.8.7-.9.9-1.5.4-1.4-2.9.5-3.7-.2-1.8-1.6 1-.8 1.5-1.5.9-1.4-2.4.3-3.5-.2-3.5-1.7 0-.8-.5-1.2-1-.9-.5.3-1 .1-1-.5s-.4-.8-1-.5c-.5.3-1 .2-1-.4 0-.5.6-1.2 1.3-1.5.6-.3.1-.3-1.2 0-1.6.4-2.1.3-1.7-.5.4-.6.1-1.1-.7-1.1-.7 0-1.9-1.2-2.5-2.6-.7-1.5-1.7-2.2-2.4-1.8-.7.5-.8.3-.3-.6.6-1 .4-1.2-.8-.7-.9.3-2.1-.1-2.9-1.1-1.2-1.6-1.1-1.6.7-.2 1.9 1.4 1.9 1.4.6-.3-1.1-1.3-1.7-1.5-2.8-.6-1.1 1-1.2.8-.6-.7.6-1.7.5-1.8-1.2-.4-1.1.9-1.6 1-1.1.2.4-.7.2-1.2-.5-1.2-.6 0-1.8-.8-2.6-1.8-1-1.1-1.2-1.2-.8-.2.4 1 .2 1-.8-.2-1-1.3-1.6-1.5-2.5-.6-.9.9-1.2.6-1.2-1.2 0-1.8-.3-2.1-.9-1.1-.5.7-1.4 1-2 .6-.9-.5-.9-1.1.1-2.3 1-1.4 1-1.5-.2-.5-1.8 1.6-6.4 1.7-5.4.2.4-.7.1-1-.7-.7-.8.3-2.3-.2-3.4-1.1-1.8-1.4-1.8-1.4-.7 0s.5 1.6-4.9 1.3c-3.8-.1-6.5-.7-7-1.6-.7-1-.9-.8-.9.6 0 1.1-.3 1.6-.7 1.3-.3-.4-1.8 0-3.2 1l-2.6 1.6 2-2.4c1.4-1.7 1.5-2 .3-1-.9.7-2.2 1-2.7.6-.6-.3-.8 0-.5.8.3.8 0 1.8-.7 2.3-.8.5-1 .3-.4-.6.6-.9.4-1.1-.4-.6-.7.5-1 1.5-.7 2.3.3.8.1 1.1-.4.8-.6-.3-1-.1-1 .5s-.6.8-1.2.5c-.7-.4-.5 0 .5.8 1.8 1.5 2.4 3.3.8 2.3-.5-.4-.8.2-.6 1.1.1 1 .7 1.7 1.3 1.6.5-.1 1.8.7 2.8 1.9 1.2 1.4 1.3 1.8.4 1.3-2.1-1.3-4.1-1.5-3.4-.4.3.5.9.7 1.4.4.5-.3 1.1-.1 1.5.5.4.7 1.2.7 2.5 0 1.5-.8 1.8-.7 1.4.3-.4 1.1.1 1.3 1.9 1 1.4-.3 2.8.1 3.2.8.6.8.4 1-.6.4-.8-.5-1.1-.4-.6.1.5.5 1.4.9 2 1 .7 0 2 .2 3 .2 1 .1 1.5.6 1.2 1.2-.3.5.1 1 1 1 1 0 1.3-.5.9-1.2s-.3-.8.5-.4c.9.6.9 1.1-.1 2.4-.8 1-.9 1.3-.1.9 1.3-.8 4.6 2 3.8 3.3-.3.5 0 1.2.6 1.6.8.5.9.3.4-.6-.6-1-.4-1.2.9-.7 1 .4 2 .7 2.2.7.3 0 .2.4-.1 1-.3.5 0 1 .7 1 1 0 .9.3-.2 1.1-1.2.9-1 1 .8.6 2-.5 2.2-.3 1 1.1-.7.9-.8 1.4-.4 1 1.4-1.2 3.6 1.2 3.6 3.7 0 1.3.6 2.5 1.3 2.8.9.3.8.8-.3 2.3-1.4 1.8-1.4 1.8.3.5 1.2-.9 1.7-1 1.7-.2 0 .7.4.9 1 .6.6-.3.7.1.4.9-.3.9-1.1 1.6-1.7 1.6-.6 0 .5 1.2 2.4 2.6 1.9 1.4 3.3 3 3.1 3.5-.1.5.7 2 1.9 3.2 3 3.2 5.1 7.6 4.5 9.3-.3.9-.1 1.2.4.9.6-.3 1-.1 1 .5s.4.8 1 .5c.6-.3 1 .3 1 1.4 0 1.2.5 2.1 1 2.1.6 0 1 .7 1 1.6 0 .8.4 1.3.8 1 .4-.2 1.4.4 2.1 1.6.7 1.1.9 1.8.4 1.5-.5-.3-1.5-.1-2.3.5-1.2.8-1.2.9.2.4 2.4-.7 11.3 7.8 10.4 10-.6 1.5-.4 1.5 1.1.3s1.6-1.2 1 .3c-.4 1.2-.2 1.5.9 1.1.9-.3 1.4.2 1.4 1.6 0 1.4.6 2.1 2 2.1 1.1 0 2 .5 2 1.1 0 .5.5.7 1 .4.6-.3 1 .1 1 .9 0 .9.5 1.6 1.1 1.6.5 0 .7.5.3 1.2-.4.7-.3.8.5.4.7-.5 2.2.3 3.6 1.8 1.3 1.4 3 2.6 3.7 2.5.7 0 .3-.5-.9-1.1-1.3-.6-2.3-1.5-2.3-2s1.4 0 3 1.2c2.7 2 4.3 3.9 2 2.5-.5-.3-1-.1-1 .4 0 .6.8 1.1 1.9 1.1 1 0 2.5.8 3.2 1.7 1.1 1.5 1.1 1.6-.1.5-.8-.6-1.8-1.2-2.4-1.2-.5 0-.1.6 1 1.4 1.2.9 2.3 1.1 3 .5.8-.6 1.7-.4 2.7.6.9.8 2.2 1.4 2.9 1.3.7-.2 1.2.2 1.1.8-.1.8.6 1 1.9.6 1.6-.4 1.9-.2 1.3.9-.7 1.1-.6 1.2.6.2 1.1-.9 1.8-.8 3.3.3 2.3 1.6 4 1.9 3.1.4-.3-.6.1-.7 1-.4 1.3.5 1.3.9.3 2.2-1.1 1.3-1 1.4.9.4 2.2-1.2 5.7-.6 4.8.8-.3.4.2 1 1 1.3.8.4 1.3.1 1.1-.6-.1-.7.2-.2.8 1 .5 1.2 1.6 2.5 2.4 2.8 1.3.5 1.3.3.1-1.1-1.3-1.6-1.2-1.6.8-.4 1.2.8 1.9 2 1.6 2.9-.4 1.4-.4 1.4.6.1.9-1.3 1.4-1.3 3.2-.2 1.9 1.2 2.1 1.2 1.6-.2-.4-1-.1-1.3.8-.9.8.3 1.2 1 .9 1.5-.4.6.4.5 1.6-.2 1.5-.8 2-.8 1.6-.1-.4.6-.3 1.1.3 1.1.5 0 1.3-.5 1.6-1 .9-1.4 4.7.8 4 2.3-.4.7-.1.5.7-.3.7-.8 2.1-1.6 3.1-1.6 1.5-.2 1.6.1.5 1.4-1.2 1.4-1 1.4 1.1.3 1.9-1.1 2.5-1.1 3.2 0 .7 1.1.9 1 .9-.5 0-1.6.2-1.7 1.7-.5 1.1 1 1.4 1 .9.1-.4-.6-.3-1.2.3-1.2.5 0 1.1.5 1.3 1.2.3.8.9.8 2.4-.1 1.9-1.2 1.9-1.2-.1-.6-1.1.3-1.6.3-1.2-.2.5-.4 2.6-.8 4.8-.9 2.8-.1 3.7.2 2.7.8-.9.7-.8.8.5.4 1-.3 2.1-.6 2.3-.6.3 0 .3-.4 0-.9-.7-1.1 1.3-.9 3.3.3.9.6 1.2.5.8-.1-.4-.6 0-1.3.8-1.7.8-.3 1.7-.1 2.1.5.3.6 1.2.3 2-.8 1.3-1.7 1.4-1.7.8.2-.6 1.6-.5 1.8.7.8 1.8-1.7 4.8-1.8 3.1-.1-.7.7-1.2 1.7-1.2 2.2 0 .6.5.4 1-.4.8-1.3 1-1.3 1 .1 0 2.1-3.5 6.1-4.6 5.1-.4-.4-.2.1.5 1.1 1.2 1.5 1.1 1.7-.3 1.7-1 0-1.4.4-1.1 1 .3.5.1 1-.5 1s-.8.5-.4 1.2c.6 1 .4 1-.8 0-1.3-1-1.8-1-2.4-.1-.5.8-.3.9.6.4.8-.5 1.1-.3.8.6-.3.8-1.1 1.3-1.8 1.1-1-.2-1 .1.1 1.4 1.2 1.5 1.2 1.6 0 .9-1.1-.6-1.3-.2-.9 1.9.3 1.5.3 2.4 0 2.1-.3-.3-1.4.3-2.4 1.2-1.8 1.6-1.9 1.6-1.3-.3.3-1-.2-.4-1 1.4-.8 1.7-2 3.2-2.5 3.2-.6 0-1 .5-1 1.1 0 .5.5.7 1 .4.7-.4.9.2.5 1.8-.4 1.5-.2 2.8.6 3.2.8.6 1 .4.5-.6-.4-.8-.1-.6.7.3.8 1 2.2 1.8 3.1 1.8 1 0 1.5.4 1.2.8-.3.5.1.9.9.9s1.2-.4 1-.8c-.3-.4.3-.6 1.2-.4 1 .2 1.8.4 1.8.5 0 .1 1.3.4 2.9.6 1.6.2 3.3.9 3.7 1.6.7 1.1.9 1.1.9 0 0-1 .4-1 1.6.2 1.7 1.8 2.8 2.1 1.9.6-.3-.5-.1-1 .4-1 1 0 1.5 1.4 1.2 3.3-.1.5.3.6.9.2.6-.3.8-1 .5-1.5-.7-1.1 2.2-.7 3.2.5.4.4.2.5-.6 0s-1.2-.4-.8.2c.3.5 1.9.8 3.6.7 2.2-.1 2.8.2 2.4 1.2-.3.8-.9 1.4-1.5 1.4-.5 0-.6-.5-.2-1.1.3-.6-.5-.3-2 .6-1.4 1-2.6 2.1-2.6 2.6s-.5.9-1.1.9c-.5 0-.7-.6-.4-1.3.4-.6-.1-.3-1 .8s-2 1.9-2.4 1.8c-.4-.1-.8.4-.8 1.2 0 .8.4 1.2.8.9.4-.2 1 .5 1.4 1.5.4 1.3 1.1 1.8 2.2 1.4 1.1-.4 1.4-.2.9.5-.4.7-.1 1.2.9 1.2s1.3-.5.9-1.2c-.4-.8-.3-1 .2-.5.9.8 1 1.2 1.3 3.9 0 .6.4.8.7.5.4-.4 1.5.2 2.5 1.4 1.2 1.4 1.8 1.6 2.2.7.3-.7.6-.3.6.9.1 1.4.7 2.3 1.7 2.3 1.1 0 1.4.6.8 2.2-.6 2-.5 2.1 1 .9 1.1-.9 1.6-1 1.6-.2 0 .7.5.9 1.2.5s.8-.3.4.4.4 2.4 1.8 3.9c1.5 1.5 2.6 3.6 2.6 4.5 0 1 .8 1.8 1.8 1.8 1.4 0 1.5.2.2 1-1 .6-1.1 1-.2 1 .6 0 1.2.7 1.2 1.6 0 .8.4 1.2 1 .9.6-.4.7.1.3 1.1-.4 1-.2 1.5.4 1.1.5-.3 1-.1 1 .6s-1.3 1.2-2.8 1.2c-1.5.1-2.5-.3-2.3-.7.3-.5.9-.6 1.3-.4.4.3.8-.1.8-.9 0-1-.5-1.1-1.5-.6-1.6.9-8.1-1.7-8.2-3.2 0-.5.5-.5 1.2-.1s.8.3.4-.4c-.5-.8-1.3-.9-2.5-.2-1.4.7-2.3.4-4-1.4-1.2-1.2-1.8-2.6-1.4-3 .4-.4-.1-.4-1 0-1.2.4-2.3 0-3.3-1.2-.9-1.1-1.3-1.2-.9-.4.4 1 .2.9-.8-.3-.8-.9-2.4-1.7-3.7-1.7-2 0-2.1-.2-.9-1.7 1.3-1.5 1.2-1.5-.7-.5-1.7.9-2.4.9-3.4-.3-.7-.8-1.7-1.2-2.3-.8-.6.3-.7.1-.3-.5.6-1.1-1.2-1.7-3.6-1.3-.5 0-.8-.9-.8-2.1 0-1.9-.2-2-1-.8-.9 1.3-1 1.3-1.1 0-.1-.8-.1-1.9 0-2.3.1-.5-.3-.6-.9-.2-.6.3-.8 1.1-.5 1.6 1.3 1.9-.9.8-3.3-1.9-1.5-1.5-2.3-2-1.9-1 .5 1.5.3 1.6-1.8.6-1.3-.6-2.2-1.5-1.8-2.1.3-.5-.3-.6-1.6-.2-1.7.5-2 .3-1.4-1.2.6-1.5.4-1.6-.9-.5-1.2.9-1.8 1-2.3.2-.4-.6-1.3-.9-2.1-.6-.8.3-1.4.1-1.4-.4 0-.6-.5-1-1-1-.6 0-.9.3-.9.7.3 2-.2 2.6-1.1 1.3-.8-1.3-1-1.2-1 .4 0 1-.8 2.5-1.7 3.3-1 .8-1.3 1.2-.7.9.6-.3 1 1.1 1 4-.1 3-.5 4.3-1.3 4-.7-.3-1 .1-.6.9.3.8.8 1.3 1.2 1.1.3-.2.6 2.5.6 6 0 4.6-.4 6.4-1.3 6.4-.7 0-1 .5-.7 1 .4.6 1.1.8 1.6.5.5-.4.5.4-.1 1.9-.6 1.7-.6 2.6.3 3 .9.3.8.5-.1.5-.7.1-1 .5-.7 1.1.4.6-.1.7-1.1.3-1.2-.4-1.5-.3-1 .5.4.7.2 1.2-.3 1.2-.6 0-1.1-.6-1.1-1.3 0-.8-.4-.7-1 .3s-1 1.1-1 .3c0-1.7-3.9-1.1-5.1.8-.7 1.1-.9 1-.9-.6s-.2-1.7-.9-.5c-.6.8-.8 1.7-.6 2 .2.4-.2.7-1 .7s-1.5-.7-1.5-1.6c-.1-1.3-.2-1.3-1.1.2-.9 1.5-1.3 1.6-2.7.5-1.2-1-1.4-1-.8-.1.9 1.6.1 1.6-2.7.1-2-1-2.1-.9-.9.5 1.1 1.3 1.1 1.5 0 1.3-.7-.1-1.9-.5-2.5-.9-.9-.6-1.1-.3-.6 1 .6 1.6.5 1.6-1 .4-1.1-.9-1.7-1-1.7-.2 0 .6-.5 1.1-1.1 1.1-.5 0-.7-.6-.3-1.3.4-.6-.1-.5-1.2.4-2.8 2.4-4.8 3.4-4 2.1.4-.6-.1-1-1.3-.9-1.1 0-1.7.5-1.5.9.3.4 0 .8-.5.8-2.1 0-2.6.2-4 1.3-1.2.9-1.3.9-.7-.1.4-.6.3-1.2-.3-1.2-.5 0-1.3.5-1.7 1.1-.4.8-.9.7-1.5-.2-.7-1.1-.9-1.1-.9.2 0 .9-1 1.9-2.2 2.2-2.2.6-2.2.6-.4-.8 1.1-.8 1.5-1.5.9-1.5s-1.6.7-2.3 1.5c-.7.9-1.9 1.4-2.6 1.1-.7-.3-1.5.2-1.8 1.1-.4.9-1.3 1.3-2.2.9-1.2-.5-1.5-.2-1 1.1.4 1 .4 1.4 0 1-.4-.4-1.4-.1-2.3.6-1.4 1.1-1.4 1-.2-.6 1.2-1.5 1.2-1.7-.3-1.1-.9.3-1.6 1.4-1.6 2.3 0 1.4-.2 1.4-1 .1-.9-1.3-1-1.3-1 0s-.1 1.3-1 0c-.5-.8-1-1-1-.4 0 .5.5 1.5 1 2.2.6.6.7 1 .4.7-.4-.2-1.3.3-2.1 1.1s-1.9 1.1-2.5.8c-.6-.4-.6.1.1 1.4.8 1.5.8 2.2-.2 2.5-.9.4-.9.6.1.6.7.1 1 .5.7 1.1-.3.5-.1 1 .4 1 .6 0 1.1.5 1.1 1.1 0 .5-.5.7-1.2.3-.7-.5-.8-.3-.4.5.5.7 1 1 1.4.7.3-.3 1.1.2 1.9 1.2.9 1 1.1 1.1.7.2-.7-1.3-.5-1.3.8-.2 1 .8 1.4 2.1 1.1 3-.5 1.4-.3 1.5.8.4 1.7-1.6 3.3-1.6 2.6.1-.3.8.4 1.2 2.2 1.1 1.4 0 3.5.5 4.7 1.3 1.1.7 2.3 1 2.7.7.3-.3 1.2.3 1.9 1.5s1.6 2.1 2.1 2.1c.4 0 .6-.4.3-.8-.2-.4.4-.8 1.4-.8 1 0 1.7.3 1.4.7-.2.4.3 1 1.2 1.3 2.3.9 2.6.8 1.9-.7-.4-.6 0-.4.8.5 1.1 1.4 1.6 1.5 2.7.5 1-.9 1.1-.9.6 0-.4.7-.3 1.3.3 1.3.5 0 1.2-.6 1.4-1.3.3-.7.6-.4.6.7.1 1.5.4 1.6 1.6.6 1.3-1.1 1.4-1 1 .2-.4.9 0 1.5.9 1.5.8 0 1.3-.3 1.1-.7-.2-.4.2-.7 1-.7s1.2.4 1 .8c-.3.4.2 1 1.1 1.3 2.3.9 3.1.7 1.4-.4-1.2-.7-1-.9.7-.7 1.2 0 1.9.5 1.7.9-.3.4.9.6 2.5.4 1.7-.2 3.1.1 3.1.7 0 .5.6.4 1.4-.2 1.1-.9 1.6-.9 2.2 0 .5.8.3 1-.7.4-.8-.5-1.1-.4-.6.1.4.4 2.4.7 4.4.5 2.7-.2 3.3 0 2.7 1.1-.6 1-.4 1.1.7.2 1.7-1.3 2.7-1.2 5.6.4 2 1.1 2.2 1 1.7-.5-.5-1.7-.5-1.7.9-.1.8 1 1.7 1.5 2.1 1.1 1-1.1 3.7-1.2 3-.2-.3.5-1 .6-1.6.3-.7-.4-.8-.2-.4.4.5.9 1.3.9 2.7.2 1.1-.6 1.9-.7 1.9-.1 0 .5.7 1.2 1.6 1.5 1.3.5 1.4.4.6-.7-.9-1-.8-1.4.3-1.4.8 0 1.5.4 1.5.9s.9.4 1.9-.2c1.4-.7 2.2-.7 2.6 0 .4.6 1.9.9 3.5.7 1.5-.3 3.3-.1 4.1.4.8.4 1.9.3 2.8-.4 1.1-.9 1.3-.9.8 0-.4.6-.3 1.4.3 1.8.5.3 1 .1 1-.6 0-.8.5-.7 1.7.2 1.5 1.2 1.6 1.2.8-.1-.6-1.2-.5-1.3.6-.2.7.6 1.8 1.2 2.4 1.2.5 0 .4-.4-.3-.9-.8-.5 0-.7 2.3-.7 2.4.1 3.4.5 3 1.3-.2.7 0 1.3.5 1.3.6 0 1-.5 1-1.1 0-.8.6-.7 1.7.2.9.8 1.4.9 1.1.4-.4-.6 1.3-1 4.2-1 2.7-.1 4.6.3 4.4.7-.3.4.2.8 1.1.8.9 0 1.4-.4 1.1-.8-.3-.5.1-.9.9-.9s1.2.4.9.9c-.8 1.2 1 1 2.3-.3.8-.8 1.4-.6 2.2.9.6 1 .7 2.3.3 2.7-.4.5-.1.5.6.1s1-1.2.7-1.7c-.7-1-.6-1 9.2-1.3 6.2-.2 6.9 0 5.5 1.2-1 .8-.5.7 1-.2 2.5-1.5 2.8-1.5 2.8-.1 0 .9.5 1.3 1 1 .6-.4.7-1.2.3-1.8-.5-.9-.3-.9.8 0 .9.8 2 .9 2.9.3.8-.6 2-1 2.5-1 .6 0 .3.5-.5 1s-1 1-.5 1c.6 0 1.6-.5 2.3-1.2.8-.8 1.2-.8 1.2-.1 0 1.6 2.8 2.4 3.6 1.1.4-.7.3-.8-.4-.4s-1.2.2-1.2-.3c0-1.4 1.7-1.4 2.5-.1.3.6 1.1 1 1.6 1 .6 0 .8-.3.6-.8-.3-.4 1-.7 2.9-.7s3.4.4 3.4.9.6.3 1.4-.3c1-.8 1.6-.9 2.1-.1.4.7 1.2.7 2.6-.1 1.4-.7 2.4-.7 3.3 0 .9.7 1.6.7 2.6-.2 1-1 1.1-.9.5.2-.6 1-.4 1.2.5.6 1.8-1.1 6-1.3 6.6-.3.3.5 1.4.4 2.4-.2 2.4-1.3 4-1.3 2 0-.9.6-1 1-.3 1 .6 0 1.5-.5 1.8-1.1.5-.6 1.2-.4 2 .8 1.1 1.5 1.6 1.6 2.7.5s1-1.2-.7-.6c-1.6.6-1.8.5-.7-.7.9-1 1.5-1 2.4-.1.7.7 1.9 1.2 2.8 1.2 1.3 0 1.3-.1 0-1-.9-.6-1-1-.3-1 .6 0 1.5.5 1.8 1 .4.7 1.3.7 2.6 0 1.1-.6 2.5-.8 3.2-.3 1.9 1.2 4.8 1.1 3.8-.1-.6-.8.3-1.1 2.9-1.1 2.1-.1 3.6.3 3.4.7-.3.4 0 .8.5.8.6 0 1.1-.3 1.1-.8 0-.4 1.1-.7 2.4-.7 1.3 0 2.2.3 2 .7-.2.4 0 .9.6 1.3.5.3 1 0 1-.8 0-1.1.7-1.3 2.2-.9 1.6.4 1.9.2 1.3-.9-.6-1.1-.5-1.1.5-.2.8.8 2 .9 3.6.3 1.5-.6 2.6-.5 3 .1.4.6 1 .7 1.7 0 2-1.6 2.3-1.6 4-.3 1.2 1 1.7 1 2.3.1.5-.8.3-.9-.6-.4-.9.5-1.1.4-.6-.4.6-.9 1.1-.9 2.1-.1s1.4.7 1.8-.2c.4-1.1.6-1 .6 0 .1.7.6 1 1.2.6.6-.3 1.5 0 2 .7.7 1.1.9 1 .9-.4 0-.9.5-1.7 1.1-1.7.5 0 .8.4.5.8-.2.4.4.8 1.4.8 1.2 0 1.6-.4 1-1.1-1-1.3 3.3-1.5 4.6-.3.4.4 1.2.4 1.8-.1 2-1.5 7.3-2 8.6-.8 1 .9 1.1.9.6-.1-.4-.6-.2-1.3.3-1.3.6-.1 1.7-.2 2.4-.3.6-.1 1.8.2 2.5.7.8.6 1.2.5 1.2-.3 0-.7.6-1 1.4-.7.7.3 1.9 0 2.6-.6 1-.9 1.1-.9.6 0-.3.6-.2 1.4.4 1.8.5.3 1-.1 1-1 0-1.1.5-1.5 1.5-1.1.8.3 1.5 0 1.6-.7 0-.7.4-.3.9.8s.9 1.4.9.6c.1-.8.7-1.1 1.7-.7.8.3 1.3.2 1-.3-.3-.5.1-1.2 1-1.5.8-.3 1.2-.2.9.4-.3.6-.1 1 .4 1 .6 0 1.1-.6 1.1-1.3 0-.9.3-.8.9.2.6.9 1 1 1.2.2.2-.6 1.4-1.3 2.7-1.6 1.5-.3 2 0 1.6.8-.5.8-.3.8.7-.1.7-.6 1.7-1.2 2.2-1.2.4 0 .5.6.2 1.2-.4.7.3.2 1.5-1.2 1.8-2 2.1-2.1 1.6-.6-.7 2-.7 2 1.5 0 1.4-1.1 1.9-1.3 1.4-.4-.8 1.3-.6 1.3.8.2.9-.8 2.1-1.1 2.7-.7.5.3 1-.2 1-1.2s.4-1.4.8-.8c.9 1.3 3.5 1.8 2.7.5-.6-1-.1-1.2 5.9-1.4 2.4-.1 3.2-.5 2.8-1.5-.3-.9-.1-1.2.6-.7.7.4 1.2.2 1.2-.3 0-.6.5-1.1 1.1-1.1.5 0 .7.5.3 1.2-.5.7-.3.8.5.4.7-.5 1-1.4.7-2.1-.3-1 .2-1.2 2-.9 1.6.3 2.3.1 1.9-.6-.3-.5-.2-1 .4-1 .5 0 2.3-1.4 4-3.1 3.1-3.1 4-4.6 2-3.3-.8.4-.9-.1-.4-1.5.5-1.6.1-2.7-1.2-3.7-1-.9-1.3-1.3-.6-1 .6.4 1.5.1 1.9-.5.4-.8.3-.9-.4-.5s-1.2.2-1.2-.3c0-.6-.3-1-.7-1-2.4.4-3.5-.3-2.9-1.7.3-.8.2-1.2-.3-.9-.5.3-1.3.1-1.6-.5-.5-.8-1.2-.7-2.3.2-1.2 1-1.4 1-.8 0 .4-.7.2-1.2-.4-1.2-.6 0-.8-.5-.4-1.2.5-.9.2-.9-.9.1-1.2.9-1.7 1-1.7.2 0-.7-.5-.9-1-.6-.6.3-1 .2-1-.4 0-.6-.7-.8-1.5-.5-.8.4-1.5.1-1.5-.6 0-.6-.4-.9-.9-.6-1.5.9-4.2-.5-3.4-1.8.4-.6-.1-.5-1 .3-1.5 1.2-1.7 1.1-1.7-.5 0-1.3-.3-1.5-.8-.7-.4.7-2 1.1-3.6.9-2.9-.3-4.9-2.3-3.9-4 .3-.5.1-.6-.6-.2-.6.4-.9 1.1-.6 1.5.2.5-1 .7-2.7.5-1.8-.2-3.5-1-4-1.7-.6-.9-.8-.8-.9.3 0 1-.3.8-.9-.5-.5-1.1-.9-1.5-.9-.9-.1 1.4-3.5 1.1-5.3-.4-1.1-.9-1.7-.9-2.6 0-.9.9-1.2.9-1.2 0 0-.7-.5-1.2-1.1-1.2-.5 0-.7.5-.3 1.2.5.7.3.8-.7.2-.8-.5-2.7-.9-4.4-1-1.6-.1-3.1-.6-3.3-1.3-.2-.6-.8-1.1-1.3-1.1-.6 0-.7.6-.3 1.3.6.9.4.9-.7 0-1.7-1.7-3.2-1.7-2.3-.1.6 1 .4 1-.8 0-1.3-1-1.7-1-2.1 0-.5 1.4-.6 1-1-9-.1-4.6.1-6.2 1.1-6.2.7 0 1-.5.7-1-.4-.6-.9-.8-1.3-.6-.4.2-.7-1.3-.7-3.4 0-2.1.3-3.6.8-3.3 1 .6.9-.5-.4-2.9-.8-1.5-.8-1.9 0-1.4.6.4 1.1.2 1.1-.3 0-.6-.4-1.1-1-1.1-.5 0-1-.5-1-1.1 0-.5.4-.8.8-.5.5.3.9-.1.9-.9s-.4-1.2-.8-.9c-1.4.8-2.2-1.8-.8-2.8 1-.6.7-.7-1-.3-2.1.6-2.3.5-1.7-1.1.6-1.5.5-1.6-.5-.7-.8.8-1.8.9-3 .3-1.2-.7-2-.6-2.4 0-.4.6-1.1.7-1.7.4-.6-.4-.8-.2-.4.4.6 1-3 2.8-4.6 2.4-.5-.1-.8.3-.8 1 0 .6-.3.8-.7.5-.3-.4-1.3-.1-2.1.6-1.3 1-1.5.9-.8-.3.4-.9.2-.8-.7.2-.8 1-1.7 1.5-2 1.1-.4-.3-.7-.1-.7.6s-.4 1-.9.7c-.5-.4-1.2 0-1.4.6-.4 1-.8 1-1.5-.1-.7-.9-1.2-1-1.6-.2-.4.6-.2 1.1.3 1.1.6 0 1.1.5 1.1 1 0 .6-1.1.8-2.5.6-1.3-.3-2.8 0-3.1.6-.4.7-.2.8.4.4.8-.4 1-.2.6.8-.3.9-1.4 1.3-2.9 1-1.3-.2-2.7.1-3.1.7-.4.8-.3.9.4.5s1.2-.5 1.2-.2-.9 1-2 1.6c-1.5.8-1.9.7-1.6-.2.1-.7.1-1-.1-.5-.3.4-.9.5-1.4.2-.5-.4-.6.2-.2 1.1.4 1.2.3 1.5-.5 1-.7-.4-1.2-.3-1.2.3 0 .5-.9.8-2.1.6-1.7-.4-1.9-.2-.8 1.1 1 1.2.9 1.3-.5.8-.9-.3-1.6-.1-1.6.5s-.9 1.1-2.1 1.1c-1.1 0-1.7.4-1.4 1 .9 1.4-.9 1.2-2.4-.2-1-1.1-1.1-.9-.5.5.5 1.3.1 2-1.5 2.4-1.1.3-2.1 1-2.1 1.6 0 .6-.7.2-1.5-.9-1.3-1.6-1.4-1.6-.9-.2.4 1.2.1 1.8-.9 1.8-.9 0-1.9.5-2.3 1.2-.5.7-.3.8.6.3.8-.5 1.1-.4.7.3-.9 1.4-4.4.4-4.4-1.3 0-.8.5-1.1 1-.8.6.4.8 0 .5-.9-.4-.8.2-2 1.4-2.7 1.6-1 1.7-1.5.8-2.7-.7-.8-1-1.5-.6-1.5.3-.1 1.2-.2 1.9-.3.6-.1 1.1-.7.9-1.4-.1-.7.3-1.2.9-1.2.6 0 .8-.7.5-1.6-.5-1.4-.4-1.5.8-.5 1.3 1.1 1.5.9 1.1-.7-.2-1.2.5-2.8 1.8-3.9 2.2-1.8 2.2-1.8.4.3-1.4 1.7-1.4 2.1-.3 2.1.8 0 1.5-.3 1.4-.6 0-.3.3-1.6.7-2.9.6-1.7 1.1-2 2-1.2 1.1.9 1.2.6.8-1.1-.4-1.5-.2-2 .5-1.5.6.3 1.5-.2 2.1-1.1.5-1 1.3-1.7 1.8-1.6.4.2.8-.1.8-.6 0-1.6 1.5-2.5 1.6-1 0 .8.4.4.9-.8.6-1.4 1.8-2.3 3-2.3 1.4 0 1.9-.4 1.4-1.3-.5-.7-.2-.7 1 .2 1.5 1.2 1.7 1.2 1.4 0-.2-.8.3-1.3 1.1-1.1 1.1.2 1.2 0 .3-1.1-.7-.8-1-1.6-.7-1.9.3-.2-.2-.5-1-.5-1.2 0-1.2.3-.3 1.6.7.9 0 .5-1.4-.8-1.5-1.2-3.1-2-3.6-1.7-.6.3-1.2.1-1.4-.5-.2-.6-1.8-1.2-3.5-1.2-2-.1-2.9-.6-2.6-1.4.6-1.6 1.6-1.6 3.2 0 1 1 1.1.9.6-.4-.4-1-.1-2 .6-2.5.8-.5 1-.3.5.7-.4.8-.1.6.7-.4.9-1.1 2.1-1.5 3.2-1 1.4.5 1.6.3 1-.8-.4-.8-.5-1.1 0-.7.4.4 1.6.3 2.6-.2 1.1-.7 2-.7 2.4 0 .3.5 1.2.7 2 .4.8-.4 1.3-1 1-1.4-.7-1.1 2.2-.6 3.2.5.4.4.2.5-.6 0-1-.5-1.2-.4-.7.4.9 1.4 2.6.5 2.6-1.5 0-.8.5-1.2 1-.9.6.4.7 1.2.4 1.8-.5.9-.4.9.6 0 .7-.6 1.9-.9 2.8-.6 1 .4 1.3.2.8-.5-.4-.6.3-1.2 1.6-1.4 1.3-.2 2.2-.9 2-1.6-.1-.8.2-1.1.8-.7.5.3 1 .1 1-.5s.5-.8 1.3-.4c.9.6.9.4-.1-.8-.9-1.1-.9-1.7-.2-2 1.6-.5.1-3.8-1.7-3.8-1 0-1.2-.6-.8-2.3.6-1.8.5-2-.6-.9-1.3 1.2-3.8 1.8-2.6.6.3-.4-.1-1.3-.9-2.1-.8-.9-1.2-2.3-.9-3.4.4-1.3.2-1.9-.9-1.9-.9 0-1.6-.7-1.6-1.6 0-.9-.5-1.2-1.2-.8-.8.5-.9.2-.5-.9.3-.9.1-1.9-.5-2.3-.7-.4-.8-.3-.4.4s.2 1.2-.3 1.2c-.6 0-1.1-.5-1.1-1 0-2.4-2-5.1-3.2-4.4-.4.2-.5-1-.3-2.7.4-2.8.3-3-1.3-1.7-1.5 1.2-1.6 1.1-.3-.4.7-1 1.7-1.6 2.1-1.3.5.3 1 0 1.2-.6.3-.8.9-.6 2 .4 1.2 1.2 1.8 1.3 2.8.4 1-.9 1.1-.9.5.2-.6 1.1-.4 1.3.8.8 1-.4 2 0 2.6 1.1 1 1.6 1 1.6 1.1 0 0-1.4.5-1.6 2.3-.9 1.2.5 3.9.7 5.9.6 2.1-.2 3.6.1 3.3.5-.3.4.4 1 1.5 1.3 1.1.3 1.8.1 1.5-.3-.6-.9 9.1-.4 10.6.5.5.4.9 0 .9-.7.1-.9.5-.7 1.4.5 1.2 1.6 1.4 1.6 2 .2.4-1.1.2-1.4-.7-.9-.6.4-.9.3-.5-.1 1.1-1.2 5.7-1.5 6.4-.4.3.5 1 .7 1.5.3.5-.3.6-1.1.2-1.7-.4-.7 0-.6 1 .2.9.7 1.7.9 1.7.4s2-.8 4.4-.8c3.9.1 4.3 0 3.9-1.9-.4-1.7-.3-1.8.6-.6 1 1.5 1.2 1.4 1.5-1.3.1-.6.8-1.1 1.6-.9.9.2 1.1-.1.4-1-.9-1.1-1.1-3.2-.4-4.1.8-1 .6-3.7-.3-3.7-.7 0-.5-.5.3-1 1.2-.8 1.2-1-.5-1.1h-2l2-.9c1.9-.8 1.9-.9.1-.9-1.5-.1-1.6-.4-.7-1.5.9-1.1.9-1.6 0-2.2-.8-.4-.9-.3-.5.4s.2 1.2-.3 1.2c-1.5 0-1.4-2.3.1-3.8.8-.8.5-1.4-1.4-2.1-2.8-1-4.8-3.3-2.6-2.9.7.2 1.2-.3 1-1-.1-.8.2-1.1.8-.7.6.3.8 1.1.5 1.6-.9 1.3.9 1.1 2.4-.3 1-.9 1.2-.9.7-.1-.3.6-.2 1.4.4 1.8.5.3 1 .2 1-.3s.7-.9 1.5-.9c1 0 1.2.4.5 1.2-.6.7-.3 1.1 1 1.1 1 0 1.7-.3 1.5-.6-.2-.4.2-.7 1-.7s1.2.4.9.9c-.5.8 1 1.2 3.5.9.7-.2 1 .2.7.7-.3.6.1 1.3 1 1.6.8.3 1.3.2 1-.2-.3-.5.8-.6 2.4-.4 1.7.2 2.8.7 2.6 1.1-.2.3.9.6 2.4.6 1.6.1 2.6-.3 2.3-.9-.4-.5 0-.7.9-.4.8.4 2.1.2 2.9-.2.7-.5 1.8-.5 2.5.1.8.6 1.4.5 1.8-.6.3-.8 1-1.5 1.6-1.5.6 0 .8.6.5 1.2-.4.7 0 .5.9-.6s2-1.5 2.8-1c1.1.6 1.1.5 0-.8-1.5-1.9.2-3.7 3-3.3 1 .2 2.1-.2 2.5-.7.3-.7.1-.8-.5-.4-.7.4-1.2.2-1.2-.3 0-.6.5-1.1 1-1.1.6 0 .9-.5.8-1.2-.2-.6.8-1.7 2.2-2.5 1.4-.7 1.9-1.3 1.3-1.3-.7 0-1.3-.5-1.3-1.1 0-.5.5-.7 1.1-.3.8.5 1-.1.7-2-.5-2.4.5-3.6 1.5-1.9.2.5.2.2.1-.5-.2-.7.1-2.4.6-3.8.7-1.9.7-2.3-.2-1.8-.8.5-.9.2-.5-.9.3-1 .2-1.7-.3-1.7-.6 0-1 .5-1 1.1 0 .5-.5.7-1.2.3-.6-.4-.8-.3-.5.3.4.6 0 1.6-.8 2.3-1.3 1.1-1.4 1-.8-.6.6-1.6.5-1.7-.9-.4-1.2 1.2-1.3 1.8-.4 2.9.8 1.2.8 1.3-.1.7-.7-.4-2.3 0-3.5.8-1.7 1.2-2.5 1.3-3.7.3-1-.8-1.3-.8-.8-.1.4.7-.1 1.5-1 1.9-1 .3-1.9.1-2.1-.4-.2-.6-.8-1.1-1.3-1.1-.6 0-.7.5-.4 1.1.4.6-.3.5-1.5-.3-1.8-1-2.4-1-2.7 0-.6 1.5-2.3.6-1.9-1.1.1-.7.1-.9-.1-.5-1 1.7-2.5.7-2-1.3.4-1.6.3-1.8-.9-.8-.8.7-1.4.7-1.4.1 0-1.6 2.6-2.2 3.9-.9 1 .9 1.2.9.9-.3-.2-.9.3-1.4 1.2-1.3.8.2 2.1-.6 2.8-1.7 1-1.7.8-2.4-2.1-5.2-2.6-2.7-2.7-2.8-.3-.8 1.6 1.4 2.5 1.8 2.1 1-1.4-2.3-4.8-4.5-6.8-4.2-1 .2-2.1-.6-2.6-2-.6-1.3-1-1.7-1-.8-.1 1.7-4.1 2.2-4.1.5 0-.6-.3-.7-.8 0-.9 1.2-4.4 1.6-3.6.4.3-.5-.2-.6-1-.3-.9.3-1.4 1-1.3 1.6.3 1.4-3.1 1.9-4 .6-.3-.6-.2-.8.3-.5.6.3 1.6-.3 2.3-1.5.7-1.1.8-1.7.2-1.3-.6.3-1.1.2-1.1-.4 0-.5.7-1.4 1.5-1.8.8-.5 1.6-1.9 1.8-3.2.2-1.2.8-2.6 1.3-2.9.5-.4.9-1.3 1-2 .2-2.8.4-3.3 1.3-2.8 1.9 1.2.4-2.2-2.1-4.6-2.4-2.5-2.7-2.5-4.2-1-1.6 1.6-1.7 1.6-1-.3.6-1.6.5-1.8-.7-.8-.7.7-2.3 1.3-3.6 1.3-1.3 0-2.3.4-2.3 1 0 .5-.5 1-1.1 1-.5 0-.8-.4-.5-.8.3-.5-.2-.9-1-.9-.9 0-1.3.6-.9 1.6.3.8.3 1.3 0 .9-.4-.3-2-.2-3.6.2-2.4.7-2.9.6-2.9-.8s-.2-1.4-1.3.2c-1.4 1.9-8.7 3.2-8.7 1.5 0-.6.5-.7 1.2-.3.7.5.8.3.3-.6-.6-1-1.1-.9-2.2.5-.8 1.2-1.3 1.4-1.3.6 0-1.1-.3-1.1-1.5-.1-.9.7-1.8 1-2.2.6-.3-.3-.1-.6.5-.6.7 0 1.2-.5 1.2-1 0-.7-.6-.7-1.9 0-1.3.7-2.2.7-2.6 0-.3-.5-1.5-1-2.6-1-1.4 0-1.8-.4-1.3-1.3.6-.9.4-.9-.8.1-1.3 1-1.8 1-2.4.1-.5-.8-.3-.9.6-.4.8.5 1.1.4.6-.3-.4-.6-1.4-.8-2.3-.5-1.2.5-1.4.3-.8-.7.5-.9.4-1.1-.3-.6-.6.4-2.5 0-4.1-.9-3.6-1.8-4.5-1.9-3.5-.3.4.7.3.8-.4.4-.6-.4-.8-1.4-.5-2.4.5-1.4.3-1.5-.8-.5-2.2 2.1-3 1.4-.9-.7 1.2-1.2 2.6-1.8 3.2-1.4.7.5.9.2.6-.8-.4-.8 0-1.5.8-1.5.7 0 1.1.4.9.8-.3.4.2 1 1.1 1.3 1 .4 1.3.2.9-.7-.4-.6.1-.3 1.1.8 1 1.2 1.5 1.4 1.2.5-.3-.8.1-2.1.8-2.8.8-.7 1.4-.9 1.4-.5 0 .5.9.9 2 .9s2-.4 2-.8.5-.8 1.1-.8c.5 0 .7.6.3 1.2-.4.7.3.3 1.4-.9 2.2-2.2 6.7-2.2 5.6.1-.3.6.3.1 1.3-1 1-1.2 2.6-2 3.6-1.9.9.2 1.5-.1 1.2-.5-.3-.5-.1-1.1.5-1.5.5-.3 1 .2 1.1 1.2 0 1 .3 1.3.5.6.3-.7 1.1-1 1.9-.7.7.3 1.6-.3 2-1.5.6-1.9.8-1.9 2.1-.6 1.9 1.9 2.5 1.9 1.8.1-.3-.8.2-1.3 1.3-1.3 3.5 0 4.4-.3 3.8-1.2-.3-.5-.1-1.2.4-1.5.5-.4 1.3-.2 1.6.4.5.8 1.1.8 2 0 1-.8 1.6-.7 2.3.6.8 1.5.9 1.5 1.5 0 .4-1 .3-1.5-.3-1.1-.6.3-1 .4-1 .2 0-.3 1.2-1.3 2.8-2.2 1.5-1 2.1-1.2 1.5-.4-.7.7-1.3 1.7-1.3 2.3 0 .5.9-.1 1.9-1.3 1.4-1.6 2.1-1.8 2.4-.9.4 1 .6 1 .6 0 .1-.6.8-1.2 1.7-1.2.9 0 1.2-.5.8-1.2-.5-.8-.2-.9.9-.5 1 .3 1.7.2 1.7-.3 0-.6.5-1 1.1-1 .5 0 .7.4.4 1-1.3 2.1.8.9 2.7-1.6 1.1-1.4 2.3-2.3 2.6-2 .3.3 1.1.1 1.9-.6 1.1-.9 1.2-.7.7.7-.5 1.3-.4 1.6.4 1.1.7-.4 1.2-1.4 1.2-2.3 0-1.3.3-1.3 1.5-.3.8.7 1.6 1 1.6.6.1-.3.2-1 .3-1.5.2-1.9 1.6-2.3 3.3-1 1.5 1.2 1.6 1.2 1.1-.3-.4-1-.1-1.9.8-2.2 2.2-.9 2.6-.7 1.8.6-.4.7-.3.8.4.4.6-.4.8-1.4.5-2.3-.5-1.2-.3-1.4.7-.8 1 .6 1.2.4.6-1-.5-1.5-.4-1.6.9-.5 1.2 1 1.5 1 1.5-.1 0-.8.6-.5 1.5.7 1.5 1.8 1.5 1.8.8 0-.5-1.4-.3-1.7.7-1.1.9.5 1.1.4.6-.3-1.2-2 .4-3.5 2.2-2 1.3 1 1.4 1 .8 0-.6-.9-.1-1.1 1.8-.8 1.5.3 2.4.1 2.1-.5-.4-.5-1.2-.7-1.8-.3-.7.3-.4-.1.6-.9 1-.9 1.7-1.7 1.5-2-.2-.3.1-.9.6-1.4.5-.4.6-.3.3.3-.4.7 0 1.4.8 1.7.9.4 1.2.1.8-.9-.3-.8.1-1.4 1.1-1.5 3-.3 3.4-.4 4.3-1.3.5-.5.2-.6-.6-.1-.9.5-1.2.3-.9-.6.3-.8 1.1-1.3 1.7-1.2.6.2 1 0 1-.5-.3-1.9.2-2.5 1.1-1.2.8 1.3 1 1.3 1-.2 0-1.1.5-1.5 1.5-1.2 1.1.4 1.5-.1 1.5-1.7 0-1.9.2-2.1 1-.9.8 1.2 1 1.1 1-.7 0-1.2.5-2.5 1.2-2.9.7-.4.8-.3.4.4s-.2 1.2.3 1.2c1 0 1.5-1.3 1.3-3.1-.1-.3.6-.6 1.4-.6.8 0 1.4.5 1.4 1 0 .6.3.8.6.5.3-.4.1-1.5-.5-2.6-1-1.8-.8-2 1.4-1.7 1.9.2 2.3-.1 1.5-1-1.4-1.6 0-2.7 1.7-1.3 1.1.8 1.2.7.8-.5-.4-1 1-3.2 4.1-6.2 3.8-3.8 4.2-4.6 2.3-4.1-2.4.7-2.4.7-.2-.6 1.2-.7 2.2-1.8 2.3-2.3.1-.6 1.1-2.1 2.3-3.4 1.2-1.3 1.5-2.1.7-1.6-.8.4-.4-.3 1-1.7 2.2-2.1 2.7-2.3 4.2-1.1 1.1 1 1.8 1.1 2.3.3.3-.6.3-.9-.2-.8-.4.2-.9 0-1.1-.5-.1-.4 0-.7.3-.7s1.9-.7 3.6-1.6c1.7-.8 3.7-1.3 4.5-1 .8.3 1.3.2.9-.3-.3-.5-.2-1.1.2-1.4.5-.2.1-.2-.7 0-.8.2-.3-.7 1-2 1.7-1.6 2.9-2 3.8-1.4.9.7 1.1.5.6-.8-.6-1.4-.4-1.6.6-1 .9.6 1.1.4.6-.4-.5-.7 0-2.1 1.1-3.3 1-1.2 1.2-1.8.4-1.3-1.1.6-1.3.4-.8-.8.3-1 .2-1.7-.2-1.7-2 0-.3-3.4 1.7-3.5 1.2-.1 1.9.2 1.6.7-.3.4-.1.8.5.8.5 0 1.2-.6 1.5-1.3.5-.9.7-.9 1.2.1.4.9.9 1 1.9.2.9-.8 1.5-.8 2 0 .9 1.5 2.8 1.3 1.9-.3-.4-.6.3-.3 1.6.8s2 1.4 1.6.7c-.7-1.1-.4-1.2 1.3-.3 1.2.7 2.1.8 2.1.2 0-.5.9-.9 2-.8 1.1.1 2 .5 2 1s-.7.6-1.6.3c-.8-.3-1.3-.2-.9.3.6 1.1 5.4.9 7.3-.2.8-.6 1.2-.2 1.2 1 0 1.5.2 1.5.9.4.9-1.5 5.1-2.3 5.1-1.1 0 .3 1.7.7 3.8.8 2 0 5.5.3 7.7.5 3.5.4 5.1.8 9 2.4.6.3.1-.3-.9-1.1-1.1-.9-1.5-1.6-.9-1.6.5 0 2 .9 3.3 2 2 1.7 4 1.9 4 .4 0-.3-.4-.3-.9.1-.5.3-1.2.1-1.6-.4-.3-.6.4-.8 1.7-.6 1.3.3 2.4.9 2.6 1.5.2.5.8 1 1.3 1 .6 0 .8-.4.5-.9-1-1.5 2.8-.7 4.4.9.8.9 1.1 1 .6.2-.7-1-.3-1.2 1.9-.8 1.6.3 3.2 1.1 3.7 1.8.4.7.8.8.8.2 0-.6.7-1.1 1.5-1.1 1 0 1.4.6 1 1.6-.4 1.1 0 1 1.6-.5 1.2-1 1.9-1.4 1.6-.7-.4.6-.3 1.4.3 1.8.5.3 1 .1 1-.5 0-.7.8-.5 2.2.4 1.6 1.1 2.5 1.3 3.5.4 1-.8 1.3-.7 1.3.2 0 1 .3 1 1.5 0s1.5-.9 1.5.6c0 1.3.3 1.5.8.7.4-.7 1.6-1 2.7-.8 1.1.2 2.4.4 2.8.4.5.1.5.7.1 1.3-.5.8 0 .7 1.1-.2 1.1-.9 1.6-1 1.1-.3-.9 1.6.5 1.9 5.7.9 2.6-.4 5.3 1.5 4 2.8-.4.4 0 .4 1 0 .9-.3 1.4-1.1 1.1-1.6-.4-.6.4-.4 1.7.3 1.3.7 3 1.2 3.8 1 .8-.1 1 .2.6 1.1-.6 1-.5 1 .5.1.9-.9 1.9-.9 3.2-.2 1.1.6 2.6.8 3.4.5.8-.3 1.7.1 2.1 1 .4 1 1.3 1.3 3.2.9 1.9-.4 3.4 0 5 1.4 1.7 1.5 2.8 1.8 4.6 1.1 1.8-.7 2.3-.6 1.9.3-.3.8.4 1.3 2 1.3 1.4 0 2.2-.4 1.9-.9-.3-.5.5-.6 1.8-.3s1.8.3 1.1 0c-1-.5-1-.9-.1-2 1-1.2.9-1.3-.6-.8-1.4.6-1.6.4-1-.7.8-1.2.6-1.2-.8 0-1.3 1-1.7 1-1.7.1s-.4-.9-1.7.1c-1.4 1.2-1.6 1.2-.9 0 .6-.9.5-1.2-.5-.9-.8.3-2.3-.2-3.3-1.1-1.6-1.3-1.8-1.3-1.1-.1.8 1.3.6 1.3-.8.1-.9-.7-2.6-1.1-3.6-.8-1.3.3-1.8 0-1.5-.7.3-.7-.2-1.3-1-1.3s-1.3.4-1 .9c.3.4 0 .8-.5.8-.6 0-1.1-.4-1.1-.9s-1.1-.8-2.5-.6c-1.4.1-2.8-.2-3.2-.8-.3-.6-.2-.7.4-.4.5.3 1 0 1-.8 0-1.3-.4-1.2-1.9.2-1 .9-1.8 1.1-1.8.6 0-.6-.7-1.3-1.4-1.6-1.1-.4-1.3-.1-.9 1s.2 1.4-.5.9c-.7-.4-1.2-1.4-1.2-2.2 0-.8-.5-1.2-1-.9-.6.4-.8 1.1-.5 1.6.3.5-.1.6-.9.3-.9-.3-1.6-1-1.6-1.4 0-.4-.7-1-1.4-1.3-1.1-.4-1.3-.1-.9 1.1.6 1.4.4 1.5-.8.5-.9-.7-2.5-1.1-3.8-.8-1.2.2-1.9 0-1.6-.5.3-.5.1-1.1-.5-1.5-.5-.3-1 0-1 .7 0 .9-.3.9-1-.2-.9-1.3-1-1.3-1 0s-.2 1.3-.9.1c-.5-.8-1.8-1.2-3-.8-1.2.3-2.4 0-2.8-.5-.3-.6-.1-.8.5-.4.6.3 1.3.2 1.6-.3.7-1.1-1.3-.9-3.1.2-.8.5-1.3.4-1.3-.2 0-.6-.9-1.1-2.1-1.1-1.3 0-1.8.4-1.4 1.2.4.7-.4.2-1.6-1.2-1.2-1.4-2-1.8-1.7-.9.5 1.2.1 1.5-1.8 1.1-1.3-.2-2.4-.9-2.4-1.6 0-.6-.5-.4-1 .4-.7 1.1-1 1.1-1 .2 0-.9-.5-1-1.9-.2-1.4.7-2.2.7-2.7-.2-.4-.6-.3-.8.4-.4.6.3 1.3.3 1.6-.2.2-.4-1.7-.8-4.2-.7-3.9 0-4.7-.3-4.6-1.7.1-1-.3-1.5-.8-1.2-.5.3-.7 1.2-.5 1.9.4.8-.2 1.1-1.6 1-1.2-.1-2.2-.4-2.2-.5 0-.2-1.5-.4-3.2-.4-1.8-.1-3.6-.6-4-1.1-.5-.4-.1-.5.7 0 .8.5 1.2.4.7 0-.9-1.1-3.9-1.6-3.3-.7.2.4-1.8.7-4.5.7-5.2 0-5.6-.3-3.6-2.5.6-.8.1-.6-1.2.5-1.4 1.1-2.1 1.5-1.8.8.4-.6.3-1.4-.3-1.8-.5-.3-1 0-1 .7 0 .8-1.3 1.3-3.4 1.3-2.3 0-3.2-.4-2.9-1.3.6-1.5-.9-1.6-2.5 0-.9.9-1.2.9-1.2 0s-.5-1-1.7-.4c-1 .5-2.7.7-3.8.4-1.1-.3-4.6-.6-7.7-.7-3.2 0-6.1-.5-6.5-1-.5-.4-.2-.5.6 0 1 .6 1.2.4.7-.4-.6-.9-1.1-.9-2.2 0s-1.4.9-1.4-.1-.3-1-1.5 0c-1.1.9-1.9 1-2.8.1-1-.7-1.7-.7-2.4 0-.8.8-1.3.8-1.7 0-.4-.6-1.2-1.1-1.7-1.1-.6 0-.8.4-.5.9.4.5-.1.8-1 .7-.8-.1-1.9-.8-2.4-1.5-.4-.8-1.3-1.1-1.9-.7-.7.5-.8.1-.4-1 .4-1 .2-1.5-.3-1.1-.5.3-1-.3-1-1.4 0-1 .3-1.9.7-1.9.4 0 .6-.8.4-1.8-.2-.9-.4-1.7-.5-1.7-.1 0-.3-1.2-.4-2.7-.2-2 .1-2.5 1.2-2 .9.3 1.3.1.9-.5-.3-.5 0-1 .8-1s1.2.3 1 .7c-.2.4.2.7 1 .7s1.2-.4.9-.9c-.3-.4-.1-.8.5-.8.5 0 1.1.5 1.3 1.2.2.6 1.2 1.2 2.1 1.4.9.1 1.5-.2 1.1-.7-.3-.5-1.1-.6-1.7-.3-.7.4-.8.3-.4-.1 1-1.1 3.7-1.5 3.7-.6 0 .4.7.8 1.5.8s1.5-.5 1.5-1.1c0-.5.7-.1 1.5 1 1.1 1.4 1.4 1.5.9.3-.4-1.3 0-1.7 1.9-1.5 1.4 0 2.3.4 2 .8-.2.5.1.8.6.8.6 0 1.1-.3 1.1-.8 0-.4 1.1-.7 2.4-.7 1.3 0 2.2.3 2 .6-.1.3.3.6 1.1.6s1.2-.4.9-.9c-.3-.4-.1-.8.5-.8.5 0 1.1.5 1.3 1.2.2.6 1.2 1.2 2.1 1.4.9.1 1.5-.2 1.1-.7-.3-.5-1.1-.6-1.7-.3-.7.4-.8.3-.4-.1 1.1-1.3 3.7-1.5 3.7-.4 0 .6.5.7 1 .4.6-.4 2.3-.8 3.8-1.1 2-.3 2.3-.2 1.2.5-1.2.8-1 1 .7.8 1.2 0 2-.4 1.8-.7-.5-.9 2.7-.6 4.3.4.6.4 1.2.4 1.2-.1 0-.4.5-.1 1 .7.8 1.3 1 1.3 1 .1 0-1.1.4-1 1.6.5.8 1 1.2 1.3.8.5-.5-1.1-.3-1.3.9-.8 1 .4 1.7.2 1.7-.5 0-.6.8-.3 1.9.6 1.4 1.3 2.1 1.4 2.7.5.4-.8.3-1-.4-.5-.7.4-1.2.2-1.2-.3 0-.6.9-1.1 2.1-1.1 1.1 0 1.8.4 1.5.9-.4.5.2.7 1.3.4 1-.3 2.2 0 2.6.7.5.8 1 .8 2.1-.1s1.4-.8 1.4.2c0 1.1.2 1.1 1-.1.9-1.3 1-1.3 1 0s.1 1.3 1 0c.8-1.2 1-1.2 1 .5.1 1.9.1 1.9 1.1.2.8-1.4 1.4-1.6 2.5-.6 1 .8 1.8.8 2.7.1 1-.9 1.9-.7 3.5.4 1.2.8 2.2 1.1 2.2.6 0-1.4 7.1-.6 8.1.9.7 1.2.9 1.2.9 0 0-1.1.4-1 1.4.4 1.3 1.8 1.3 1.8 2.4-.1.8-1.4 1.2-1.5 1.2-.4 0 1.3.1 1.3 1 0s1-1.3 1 0 .1 1.3 1 0c.8-1.3 1-1.3 1 .2 0 1.3.5 1.5 2.8.9 3.3-1 5.5-.4 4.5 1.2-.4.7.1.6 1-.2 1.3-1 1.7-1 1.7-.1s.4.9 1.7-.1c1.1-1 1.4-1 .9-.2-.8 1.5.6 1.7 2 .3.6-.6 1.5-.5 2.4.1 1.2.9 1.1 1-.5.4-1.6-.5-1.7-.4-.8.6.8.8 1.6.9 2.5.2.7-.5 1.9-.8 2.6-.7.6.1 1.7.2 2.3.3.5 0 .7.7.3 1.3-.5.8 0 .7 1.1-.2 1.7-1.4 1.8-1.3 1.2.5-.7 2-.7 2 .8.1.8-1.1 1.5-1.5 1.5-1s1.5 1.1 3.3 1.2c5 .2 7.2.9 7 2-.2.6.4.9 1.2.6.8-.4 1.2-1 .9-1.5-.3-.5.2-.6 1-.3.9.3 1.2 1.3.9 2.2-.4 1.3-.2 1.2 1.1-.3 1-1.1 1.5-1.4 1.1-.8-.3.7-.1 1.3.4 1.3.6 0 1.1-.5 1.1-1.1 0-.5.5-.7 1-.4.6.4.7 1.1.4 1.7-.4.7-.2.8.5.4.6-.4.9-1.2.6-1.7-.4-.5 0-.9.7-.9s.2-.7-1-1.6c-1.3-.9-3.4-1.4-4.8-1.1-1.6.3-2.8-.1-3.1-.9-.3-.8-.9-1.4-1.5-1.4-.5 0-.6.6-.2 1.2.6 1 .4 1-.7.1-1.7-1.7-3.2-1.7-2.3-.1.6 1 .5 1-.7.1-.9-.7-2.5-1.1-3.7-.8-1.3.2-2.6-.3-3.2-1.3-.7-1.3-.9-1.4-1-.3 0 1.1-.4 1-1.3-.4-1.1-1.4-1.6-1.5-2.2-.5-.6.9-.4 1.1.5.5.9-.6 1.1-.4.5.5-.6 1-1.1 1-2-.3-1.3-1.8-3.1-2.4-2.1-.8.4.5-.8.7-2.6.4-1.8-.3-3.5-.9-3.6-1.4-.2-.5-.9-.6-1.5-.2-.7.4-2.1.9-3.2 1-1.5.2-1.6.1-.6-.6.9-.6.4-1-1.8-1.3-1.7-.2-3.1-.1-3.1.3s-1.1.6-2.4.5c-1.3 0-2.4-.5-2.3-1 .1-.5-.4-1.1-1.2-1.4-.8-.2-1.1 0-.8.5.3.5 0 1-.8 1s-1.2-.3-1-.7c.2-.4-.2-.7-1-.7s-1.1.5-.8 1c.3.5 0 .7-.8.5-.8-.3-1.3-1.2-1.1-1.9.1-.9-.3-.8-1.1.3-1.6 2-3.2 2.5-2.1.6.5-.8.2-.9-.9-.5-1 .4-1.7.1-1.7-.6 0-.8-.4-.6-1 .3-.8 1.2-1 1.2-1.1-.5v-2l-.9 2c-.5 1.1-.9 1.4-.9.7-.1-.6-.6-1.2-1.2-1.2-.5 0-.7.5-.3 1.1.3.6-.8.3-2.6-.6-1.8-.9-2.9-1.2-2.6-.6 1.1 1.8-.6 1.2-2-.7-1.3-1.6-1.4-1.6-.7.2.5 1.5.3 1.7-.8 1.1-1.7-1.1-5-1.4-4.4-.4.3.4-.6.6-1.9.5-1.3 0-2.2-.5-1.8-1 .3-.5-.5-.7-1.6-.4-1.6.5-2.2.2-2.3-1 0-1.4-.2-1.3-.9.3-.5 1.1-.9 1.5-.9 1-.1-1.1-10.1-1.4-10.1-.3 0 1-2.6.3-4.6-1.2-1.8-1.4-1.8-1.4-.5.3s1.2 1.8-1.4 1.3c-1.6-.3-3.2-1.1-3.7-1.8-.4-.7-.8-.8-.8-.3 0 .6-1.1 1.1-2.4 1.1-1.4 0-2.3-.3-2-.7.2-.4-.3-1-1.2-1.3-.8-.3-1.2-.2-.9.3.3.5.1 1.2-.5 1.6-.5.3-1 0-1-.7 0-.9-.3-.9-1 .2-.5.8-1 1-1 .4 0-.7-.7-1.4-1.4-1.7-1-.4-1.3-.1-1 .7.5 1.4-3.2 1.6-5.3.3-.8-.5-1.3-.3-1.3.5 0 .9-.3.9-1-.2s-1-1.2-1-.2-.4 1-1.6-.2c-1.9-2-2.5-2-1.8-.3.5 1.5-3.1 1.7-5.3.4-.8-.5-1.3-.3-1.3.5 0 .9-.3.9-1-.2s-1-1.2-1-.2-.4 1-1.6-.2c-2-2.1-2.5-2-1.7.1.6 1.6.5 1.6-1 .4-1.4-1.1-1.7-1.1-1.7 0 0 1.2-.2 1.2-.9 0-.7-1.1-.9-1.1-1.4 0-.4.9-.6.7-.7-.6-.1-1.9-.2-1.9-.9-.2-.7 1.8-.8 1.8-2.1.1-1.2-1.5-1.2-1.6-.1-.9 1 .5 1.2.4.7-.3-.4-.7-1.6-1.2-2.8-1.2-1.7 0-1.9-.4-1.4-2.6.5-1.9.4-2.4-.6-1.9-.7.4-.5 0 .5-.8.9-.8 1.7-2 1.7-2.6 0-.7 1-2.2 2.3-3.3 1.2-1.1 1.7-1.7 1-1.4-.8.5-.8 0 0-1.8.7-1.3 1.5-2.2 2-1.9.4.2.6-.7.3-2.1-.3-1.8-.1-2.3.9-2 .7.3 1.6 0 2-.6.3-.6.1-.9-.6-.8-.6.2-1.4-.3-1.6-1-.3-.6 0-1.2.7-1.2.6 0 .8-.5.3-1.3-1.2-1.9-1.3-4-.1-5.4.7-.9.7-1.3-.1-1.3-.9 0-.9-.6 0-2.3.6-1.2.8-1.9.4-1.4-.5.4-1.8-.1-2.9-1-2-1.8-2.1-1.7-.6.2 1.2 1.7 1.1 1.7-.6-.1-1.2-1.3-2.6-2-3-1.6-.5.4-.2-.2.6-1.3s1.1-1.7.7-1.4c-.5.4-1.9-.3-3.1-1.5-1.9-1.7-2.3-2.9-2-6.4.1-2.3.6-4.7.9-5.2.3-.6.1-1-.5-1-.8 0-.8-.6 0-2 .6-1.1.8-2.4.5-2.9-.8-1.5.6-4.2 1.9-3.4.6.4.6 0-.2-.9-1-1.3-1-1.8-.1-2.4.7-.4.9-.3.6.3-.3.5 0 1 .7 1 .8 0 1.2-1.1 1.1-2.9-.1-1.5.2-2.8.7-2.8.5 0 .7-.4.4-.8-.2-.4.5-1.9 1.6-3.2 1.1-1.4 1.7-2 1.4-1.3-.4.6-.2 1.4.3 1.7.5.4.8-.5.6-1.9-.1-1.6.3-2.5 1.1-2.5s1.4-.9 1.4-2.1c0-1.1.4-1.8.9-1.4.5.3 1.3 0 1.7-.6.4-.8.3-.9-.4-.5-1.6.9-1.5-.7 0-2.2.9-.9.9-1.5-.1-2.5s-1.1-.8-.6.8c.4 1.1-.3.5-1.4-1.3-1.5-2.3-2.7-3.2-3.8-2.8-1.1.5-1.4.2-.9-1 .5-1.4.4-1.5-.9-.4-1.2 1-1.5 1-1.5-.1s-.2-1.1-1 .1c-.6 1-1 1.1-1 .2 0-.7-1.3-1.2-3-1.2-1.6 0-3-.5-3-1 0-.6-.5-1-1.1-1-.5 0-.8.4-.5.8.2.4-.4.8-1.5.8-1 0-1.9-.4-1.9-.9 0-.4-.4-.6-.9-.2-2.4 1.4-7 1.1-9.2-.7-2.1-1.7-2.1-1.8-.2-.9 1.6.8 2.2.7 2.7-.4.3-.8 1.2-1.2 2.1-.9.9.4 1.5.1 1.5-.7 0-.7.6-.5 1.4.7 1.2 1.6 1.7 1.7 2.8.6 1.1-1.1 1-1.2-.6-.6-1.4.5-1.7.4-1.1-.5.4-.7 1.8-1.1 3.1-.8 1.3.2 2.4 0 2.4-.6s.3-.7.7-.4c.3.4 1.3.1 2.1-.6 1.3-1 1.5-.9.8.3-.6 1.3-.5 1.3.6 0 .7-.9 2.1-1.4 3.2-1.2 1.1.2 1.6 0 1.2-.6-.3-.6-.1-1.4.5-1.8.7-.4.9-.3.5.4-.3.6-.2 1.3.3 1.6.5.3 1.1-.4 1.4-1.6.5-1.9.8-2 2.3-.7 1 .8 1.5.9 1.2.4-.3-.6 0-1.6.8-2.3 1.1-1 1.4-1 1.4 0 .1.9.5.7 1.4-.4 1-1.4 1.5-1.5 2.5-.5 1 .9 1.1.8.5-.7-.5-1.3-.4-1.7.3-1.3.6.4 1.3 0 1.7-.8.3-.9 1.2-1.2 2.2-.8 1.1.4 1.5.3 1-.5-1-1.6 1.5-2.7 2.6-1.1.8 1.1.9 1 .4-.4-.3-1.1 0-1.7.9-1.7.8 0 1.5-.6 1.5-1.3 0-1.6 3.8-4 5-3.2.6.3.7 0 .5-.7-.7-1.7 4-6.2 5.4-5.4.7.4.8.1.5-.8-.4-.9 0-1.8.9-2.2.9-.3 1.3-1.2 1-2.1-.4-1.1-.2-1.4.5-.9 1.1.6 1.6-.5 1.3-2.6 0-.4.5-.5 1.3-.2s1.7 0 2.2-.7c.4-.8.3-1-.4-.5-.7.4-1.2.2-1.2-.4 0-.7.9-1.4 2-1.7 1.1-.3 1.7-.9 1.4-1.4-.3-.5-1-.6-1.6-.3-.7.4-.8.2-.4-.5.4-.6 1.1-.9 1.6-.6.4.3 1.1-.2 1.4-1.1.4-1 .2-1.3-.6-.8-.7.5-.8.3-.4-.5.5-.7 1.4-1 2.2-.7 1 .4 1.1 0 .4-2-.7-1.8-.7-2.3.1-1.8.7.4 1 .1.7-.7-.3-.8.2-2 1.1-2.7 1.3-1.1 1.3-1.2.1-.7-.9.4-.8.1.3-.8 1.3-1.1 1.5-1.6.5-1.9-1-.4-1-.8-.1-1.9 1.3-1.6 2-9.9 1-11.6-.4-.6 0-1.4.9-1.7 1.4-.5 1.4-.9.3-2.3-1.5-1.8-1.3-5 .4-7.3 1-1.3 1-1.3-.4-.2-1.4 1-1.8 1-2.3-.3-.3-.9-.2-1.3.4-1 .6.3 1 .1 1-.4 0-.6-.5-1.1-1.1-1.1-.6 0-.9-.9-.6-2 .3-1.3 0-2-.9-2-.8 0-1.4-.5-1.4-1.1 0-.5.4-.8.9-.5 1.4.9.6-2.3-.9-3.7-1.1-.9-1.1-.8 0 .8 1.4 1.9 1.4 1.9-.3.6-1.4-1.1-1.5-1.7-.5-2.8.9-1.1.8-1.3-.3-1.1-.8.2-1.3-.3-1.1-1 .1-.8-.2-1.1-.8-.7-.5.3-1 .2-1-.4 0-.6-.7-.8-1.6-.4-.8.3-1.3 1.2-.9 2.1.4 1.2.3 1.2-.8.3-1.2-.9-1.3-.6-.9 1.6.4 2.1.2 2.5-1.1 2-1.6-.6-5.2 2.5-4.1 3.6.3.3-.2.4-1.3.3-1-.2-2.4.2-3.2.8-1.2.9-1.3.8-.7-.3.7-1 .3-1.2-1.3-.6-2.4.7-2.8-.7-.6-2.5.9-.7 1.3-1.5 1.1-1.7-.6-.6 2.7-3.9 4.5-4.6 1-.4 1-.6.2-.6-.7-.1-1.3-.6-1.3-1.2 0-.5.6-.7 1.3-.3.9.6.9.4-.1-.8-1-1.3-1-1.8-.1-2.4.8-.5.9-.3.4.6-.6.9-.4 1.1.5.5 1-.6.9-1.1-.5-2.2-1.1-.7-1.3-1.3-.6-1.3.9 0 .8-.5-.3-1.6-1.8-1.7-2.1-2.8-.6-1.9 1.8 1.1-.3-2.9-2.2-4.3-1.6-1.2-1.7-1.6-.6-3 1.1-1.3 1-1.5-.5-.9-1.1.4-1.6.3-1.2-.3.3-.6.1-1-.6-1-.6 0-.9-.8-.6-1.9.3-1.5 0-1.9-1.4-1.6-1.3.3-1.6-.1-1.2-1.2.4-1.1-.5-2.7-2.8-4.7-4.8-4.2-9.1-10.3-7.9-11.1.6-.4.2-1.5-1-2.7-1.8-2-1.8-2.3-.4-3.9s1.4-1.8-.3-2.8c-1.1-.6-1.3-1.1-.5-1.1.7 0 1.1-.4.8-.9-.4-.5 0-1.2.6-1.4.8-.3.6-.6-.5-.6-1.4-.1-1.6-.5-.8-1.9.8-1.3.3-2.3-2.2-4.7-1.8-1.7-2.4-2.3-1.3-1.5 1.1.8 1.6 1 1.3.3-.4-.6-.4-1.3 0-1.6.5-.2.2-.2-.4-.1-.7.2-1.7-.4-2.2-1.4-.8-1.4-1-1.3-1.6 1.1-.4 1.5-1.1 2.5-1.5 2.2-.4-.3-1 .2-1.4 1-.3.8-.1 1.7.4 2 1.5.9-1.2 4.5-3.3 4.5-1 0-1.5.4-1.2 1 .3.5-.3 1-1.4 1-1.2 0-2.1.5-2.1 1.1 0 .5.5.7 1.2.3.7-.4.8-.3.4.5-.6.9-1.1.9-2.2 0s-1.4-.9-1.4.1c0 .8-.3 1-.7.7-.3-.4-1.2-.2-1.9.4-1 .8-1.1.6-.1-1.4.6-1.4 1.5-2.3 1.9-2.1.5.3.8 0 .8-.5 0-.6-.6-1.1-1.2-1.1-.9 0-.8-.4.2-1 .8-.5 2.4-.7 3.5-.4 1.9.5 1.9.4.1-.7-1.7-1-1.6-1.2 1-3.1 1.6-1.1 2.1-1.8 1.2-1.4-1 .3-1.8.1-1.8-.4 0-.6.4-1 .9-1 .4 0 .8-1 .7-2.3-.1-1.2.3-2.5.9-2.9.6-.4.2-.8-.9-.8-1.9 0-1.9 0-.1-1.3 1.4-1.1 1.5-1.6.5-2.2-.9-.6-1.1-.4-.5.5.5.8.4 1.1-.3.6-.6-.4-.9-1.3-.5-2.1.3-.8.1-1.5-.4-1.5-1.8 0-3.3-4.6-2-5.9.9-.9.8-1.1-.5-.6-1.2.5-2 .1-2.5-1.1-.8-2.2-2.8-4.4-3.9-4.4-.4 0-1.8-1-3.1-2.2-2.2-2.1-2.2-2.2-.5-4.2 1.6-2 1.6-2-.2-.6-1.6 1.3-2 1.2-3.2-.5-.8-1-1.4-2.9-1.4-4.3 0-1.5-.4-2.1-1.2-1.6-.8.5-.9.2-.5-1 .5-1.3.3-1.7-.7-1.3-1.1.4-1.3-.1-1-1.9.3-1.6.1-2.3-.6-1.9-.6.3-.7 0-.4-.9.3-.9.1-1.6-.5-1.6s-1.1-.5-1.1-1.1c0-.5.4-.8.8-.5.5.3.9-.1.9-.9 0-1.3-.3-1.3-1.7 0-.9.8-1.9 1.3-2.2 1-.3-.3-1.6 1-2.9 3-1.3 1.9-2.8 3.5-3.2 3.5-.5 0-.6.4-.2 1 .3.5-.5 1.6-1.9 2.5-2.3 1.5-4.8 5.3-2.6 4 .6-.3 1-.1 1 .4 0 .6-.5 1.1-1.1 1.1-.6 0-.9.9-.6 2 .4 1.4 0 2-1.1 2.1-1.4 0-1.3.2.3.9 1.1.5 1.5.9.8.9-.7.1-1 .8-.6 1.8.5 1.2.3 1.4-.8.9-.8-.4-.6-.1.4.7 1.8 1.5 1.8 1.5 0 2-1.5.4-1.5.5-.2.6 1 .1 1.7 1 1.8 2.3.2 8.5.1 9.7-1.1 10.4-.7.5-.8.2-.3-.7.7-1.1.6-1.2-.7-.2-.8.7-1.8 1-2.1.6-.4-.3-.7-.1-.7.5 0 .7.5 1.2 1 1.2.6 0-1.2 2-4 4.5s-5.5 4.3-5.9 4.1c-.5-.3-.7.6-.5 1.9.1 1.8-.3 2.5-1.4 2.5-1.5 0-1.5.2-.2 1 1 .6 1.1 1 .3 1-.7 0-1.3.5-1.3 1.1 0 .5.5.7 1.2.3.7-.5.8-.3.4.5-.5.7-1.5 1-2.3.7-.8-.3-1.1-.1-.8.4.3.5.2 1.8-.4 2.8-.5 1-.6 2.4-.1 3.2.5.9.3 1.8-.6 2.4-1 .8-1.1 1.5-.3 2.6.9 1.3 1 1.2.5-.3-.8-2.5.3-2.1 1.3.5.5 1.4.5 3.1-.1 4.2-.8 1.4-.7 1.7.3 1.1.8-.6 1.1-.4.7.6-.3.8-.1 2.3.4 3.4.8 1.8.8 1.8.4-.3-.2-1.3 0-2 .6-1.6.5.4.8 1.7.5 2.9-.3 1.9 0 2.3 1.5 2 1.6-.4 1.8-.2.8 1s-.9 1.5.4 1.5c1.9 0 2.1 1.6.4 2.4-.7.3-.3.3 1 0 2.4-.6 2.9.5 1 2.5-1 1.1-1 1.3 0 .7.8-.5 1.2.2 1.2 2.6 0 4.8-1 7.8-2.7 7.8-.8 0-1.3.8-1.1 1.7.2 1.1-.3 1.8-1.2 1.8-.8 0-1.9.4-2.3 1-.5.6-.7-.2-.4-1.7.3-1.9 0-2.5-1-2.1-.8.3-1.3-.2-1.3-1.6 0-1.2-.4-2.1-1-2.1-.5 0-1-.7-1-1.5s-.5-1.5-1.1-1.5c-.5 0-.7.5-.3 1.2.4.7.3.8-.4.4-.6-.4-.9-1.3-.5-2.1.3-1-.2-1.5-1.7-1.5-1.1 0-1.8-.5-1.5-1 .3-.6-.1-1-.9-1-.9 0-1.6-.5-1.6-1 0-.6-.9-1-2-1s-2-.5-2-1.1c0-.5.6-.7 1.3-.3.7.4.8.3.4-.2-.5-.5-1.6-.9-2.5-.9-1.3 0-1.7-.8-1.5-3.3.1-1.7-.3-3.2-.8-3.2s-.9-.4-.9-1c0-.5.8-.7 1.8-.4.9.3-.2-.5-2.5-1.7-4.7-2.3-5.2-3.2-2.5-4.9 1.5-1 1.5-1.1 0-.6-1.9.5-4.6-2-2.8-2.6.6-.2.8-1.1.5-2.1-.4-.9-1.1-1.5-1.5-1.2-1.3.8-.6-2.1.9-3.9 1.2-1.4 1.1-1.6-.5-1-1.8.5-1.8.4.1-1.2 1.7-1.4 1.7-1.6.3-1.1-2.1.7-2.3-.3-.5-2.3 1-1.3 1-1.3-.3-.2-1.9 1.7-3.3 1.5-2.6-.3.3-.9 0-1.5-1-1.5-1.1 0-1.4-.6-.9-2.3.5-1.7.4-1.9-.4-.7-1 1.3-1.5.8-1.2-1.3 0-.4-.4-.7-.9-.7-1.2 0-3.2-1.5-5.8-4.3-.9-.9-2.2-1.7-2.9-1.7-.7 0-1.3-.5-1.3-1.1 0-.5.6-.7 1.3-.3.6.4.8.3.4-.1-1.2-1.4-3.8-1.5-3.1-.2.3.7-.4.2-1.5-1.1s-2.5-2.1-3.1-1.7c-.5.3-1 .1-1-.5 0-.7-.7-.9-1.6-.6-1.3.5-1.4.4-.6-.7 1.6-1.9.3-3-1.6-1.4-1.3 1-1.5.9-.9-.7.6-1.5.5-1.7-.6-.7-1.2.9-1.6.6-2-1.9-.4-1.6-1.3-3-2.1-3-.7 0-2-.8-2.7-1.8-1.3-1.6-1.3-1.6.6-.2 1.9 1.4 1.9 1.4.6-.3-.7-.9-2-1.7-2.7-1.7-.8 0-1.4-.7-1.4-1.6 0-.9-.5-1.2-1.2-.8-.8.5-.9.2-.5-.9.3-.9.1-1.9-.5-2.3-.7-.4-.8-.3-.4.4s.4 1.2.1 1.2c-1.1 0-3.5-2.8-3.5-4.2 0-.7-1-1.9-2.2-2.7l-2.3-1.4 2 2.3 2 2.3-2.3-1.4c-1.2-.8-2.5-2.3-2.9-3.4-.3-1.1-1.3-2.6-2.2-3.3-1.3-1.1-1.3-1.2-.1-.7 1 .4 1 .2-.2-.8-1.3-1-1.4-1.7-.6-2.5.8-.8.5-.9-1.1-.5-1.2.3-2.1.1-2.1-.6 0-.6.5-1.1 1-1.1.6 0 .2-.8-.7-1.8-1-1-2.1-1.4-2.4-1-.3.5-1.4-.2-2.5-1.4-1.3-1.6-1.4-1.9-.2-1 1.2 1 1.8 1 2.4.1.4-.7.3-.9-.4-.5-.6.3-1.4.1-1.7-.5-.4-.5-1.3-.8-2.1-.5-1.7.7-1.9-1-.1-1.8.6-.3.1-.3-1.2 0-1.6.4-2.1.2-1.7-.5.5-.7.1-.9-.8-.5-1 .4-1.6.1-1.6-.9 0-.8-.7-1.8-1.5-2.1-1.4-.5-1.4-.8 0-3 1.1-1.6 1.3-2.6.5-3.1-.6-.3-.8-1-.5-1.5.3-.5 0-1.2-.6-1.6-.8-.5-.9-.3-.4.6.6 1 .1 1.2-1.9.8-1.4-.3-2.9-.1-3.3.5-.3.6-.1.7.5.3.7-.4 1.2-.2 1.2.3 0 .6-.4 1.1-.9 1.1-.9 0-2.4 3.3-2.6 5.5 0 .5-.7 1-1.5 1-.8.1-1.4.7-1.2 1.4.1.7-.2 1-.8.6-.6-.3-.8-1-.6-1.4.3-.4-.4-2.2-1.5-4-1.1-1.8-1.5-3-.9-2.6.6.3.7 0 .4-.9-.3-.9-1-1.3-1.5-1-.7.4-1.3-2-1.1-4.6 0-.3-1.5-.5-3.3-.5-2.5 0-3.1.3-2.3 1.2.7.9.7 1.3-.1 1.3-.7 0-1 .4-.7.8.2.4-.5 1.4-1.7 2.2-2 1.2-2.1 1.2-.9-.3 1.1-1.3 1-1.5-1-.9-2 .5-2.2.4-.9-1.1 1.2-1.5 1-1.8-1-2.6-2.2-.9-2.2-1.1-.1-1.5.4 0 2.3-1.4 4.2-3 1.9-1.5 2.9-2.5 2.1-2-1 .5-1.2.3-.7-.5.5-.7 1.5-1 2.3-.7 1.1.5 1.3.2.9-1-.5-1.3-.1-1.5 1.8-1.2 1.9.4 2.3.1 1.8-1-.4-1.1-.1-1.4 1.1-.9 1.8.7 3.3-.8 1.7-1.8-.5-.3-1-1.2-1-1.8 0-.8.3-.8.9.2.5.8 1.1.9 1.5.3.3-.5-.1-1.2-.9-1.6-.8-.3-1.5-1-1.5-1.6 0-.6.5-.8 1.2-.4s.8.3.4-.4c-.4-.6-1.3-.9-2.1-.5-1.1.4-1.3.1-.8-1.3.4-1.1.3-1.5-.4-1.1-.6.4-1.4 0-1.7-.9-.3-.8-.2-1.2.4-.9.5.3.8-.3.7-1.4-.1-1.2-.6-1.7-1.6-1.3-.9.3-1.2.1-.7-.6.7-1.1-.6-1.7-2.8-1.3-.5.1-.3-.5.4-1.4.7-.9.9-1.5.4-1.4-1.9.3-3.4-.1-3.4-1.2 0-.5.5-.7 1-.4.6.3 1 .2 1-.3s-1.2-1-2.6-1c-1.4 0-3.1-.5-3.7-1.2-.7-.8-.7-1-.1-.7.6.3 1.1 0 1.1-.7 0-.8-.6-1.2-1.4-.9-.7.3-1.3 0-1.3-.7 0-.6-.4-.8-1-.5-.5.3-1-.1-1-1 0-1 .5-1.3 1.2-.9s.8.3.4-.4c-.4-.6-1.3-.9-2.1-.5-.9.3-1.5-.1-1.5-1.1s-.9-1.6-2.2-1.7c-1.3 0-1.7-.3-1-.6.9-.3.6-1.1-1-2.5-1.9-1.6-2-2.1-.8-2.9 1.2-.8 1-.9-.6-.4-1.4.3-2.6-.1-3.5-1.2-1.3-1.7-1.3-1.7.6-.3s1.9 1.4.6-.3c-.7-.9-1.9-1.7-2.7-1.7-.7 0-1.6-.5-2-1.2-.5-.7-.3-.8.6-.3.8.5 1.1.4.6-.3-.8-1.3-4.7-.7-5.7 1-.5.8-.8.5-.6-.9 0-1.2.5-1.9 1.1-1.6.5.3.6.1.2-.5-.4-.6-1.4-.8-2.3-.5-.9.4-1.4.2-1-.3.3-.5-.3-1-1.3-1s-1.7.4-1.4.7c.2.4.1 1-.4 1.3-.4.2-1.4-.4-2.1-1.6-.7-1.1-.8-1.7-.2-1.4.7.4.8.1.5-.8-.3-.9-.9-1.4-1.3-1.1-.4.2-.8-.2-.8-.9 0-.9.7-1.2 1.6-.8 1.4.5 1.4.4.1-1.3-1.2-1.5-1.2-1.7-.1-1 1.1.6 1.3.4.8-.8-.3-1-.2-1.6.4-1.4.6.1 1.8-.9 2.7-2.3 1.6-2.3 1.6-2.4-.1-1.7-1.1.4-1.6.3-1.2-.3.3-.5-.2-1.8-1.2-2.8-2.2-2.3-2.7-4.2-1.1-4.2.6 0 .8-.3.5-.6-.4-.4-1.3-.1-2.2.6-1.2 1-1.5 1-1.5-.4 0-.9-.5-1.6-1.1-1.6-.5 0-.7-.4-.4-1 .3-.5 0-.7-.8-.4-1.6.6-4.1-2.1-3.3-3.5.3-.5.1-1.1-.6-1.3-.6-.2-1.3-1.5-1.5-2.9-.2-1.9-.1-2.1.7-.9.5.8 1 1 1 .4 0-.5-.5-1.5-1.1-2.1-.7-.7-1.2-2.9-1.3-5.1-.1-2.9.2-3.9 1.4-3.8.8.1 1.4-.5 1.2-1.2-.1-.7-.4-2.1-.5-3.2-.2-1.1-.7-2.3-1.2-2.7-.4-.5-.5-.2-.1.4.4.7.2 1.3-.4 1.3-.6 0-.8-1-.4-2.6.5-1.8.3-2.5-.3-2.1-1.5 1-2.4-1.8-1-3.2.6-.6.7-1.1.2-1.1-.6 0-.3-.5.5-1.1 1.3-.9 1.3-1 0-.6-.8.2-1.4 1-1.2 1.6.1.7-.1 1-.5.8-1.1-.7-1-10.8.1-12.6.5-.8.3-1.7-.5-2.2-1.1-.7-1.1-.9.3-.9 1 0 1.6-.7 1.5-1.9 0-1.1-.5-1.7-1.1-1.4-.5.3-1.4-.1-2-.9-1-1.3-1.4-1.2-3.1.5zM467 94c0 .5-.2 1-.4 1-.3 0-.8-.5-1.1-1-.3-.6-.1-1 .4-1 .6 0 1.1.4 1.1 1zm28 53.4c0 .3-.4.8-1 1.1-.5.3-1 .1-1-.4 0-.6.5-1.1 1-1.1.6 0 1 .2 1 .4zm142.7 61.1c0 .8-.4 1.2-.9.9-.5-.3-.6-1-.3-1.5.9-1.3 1.2-1.1 1.2.6zM264.5 216c.3.5.1 1-.4 1-.6 0-1.1-.5-1.1-1 0-.6.2-1 .4-1 .3 0 .8.4 1.1 1zm423 6.9c.3.5.2 1.2-.3 1.5-.5.3-.9-.1-.9-.9 0-1.7.3-1.9 1.2-.6zm-462.9 4.5c-.3 1.9-.1 2.3 1.1 1.9 1.1-.4 1.4-.2.9.5-1 1.7-3.6 1.5-3.6-.2s1-4.6 1.6-4.6c.3 0 .2 1.1 0 2.4zm394.1 7.5c0 1.1-.5 1.8-.9 1.5-.4-.3-.5-1.1-.1-1.9.7-2.1 1.2-1.9 1 .4zM203 242.4c0 .2-.7.7-1.6 1-.8.3-1.2.2-.9-.4.6-1 2.5-1.4 2.5-.6zm496.8 13.1c-.3.3-.9-.2-1.2-1.2-.6-1.4-.5-1.5.5-.6.7.7 1 1.5.7 1.8zm-512.2 8.3c-1.7 1.6-1.8 1.6-.5-.5.7-1.2 1.5-2 1.8-1.7.3.2-.3 1.2-1.3 2.2zm115.4 4.8c0 .7.5 1.6 1.2 2 .8.5.9.2.4-1.1-.5-1.5-.4-1.6.9-.5.8.7 1.5 1.8 1.5 2.5s.8 1.9 1.8 2.6c1.6 1.3 1.6 1.3.2-.6-1.4-1.9-1.4-1.9.3-.6 1.4 1.1 1.5 1.6.5 2.9-1 1.3-1 1.4 0 .8.7-.4 1.2-.2 1.2.4 0 .6.5.8 1.3.4.7-.5.6 0-.3 1.1-1.4 1.7-1.3 1.8.2 1.2 2-.7 4.5 1.7 2.8 2.8-.6.4-.8 1.5-.5 2.6.4 1.1.2 1.9-.5 1.9-.6 0-.8-.6-.4-1.3.6-1 .4-1-.7 0-2.2 2.1-4.1 1.6-3.4-1 .4-1.5.4-1.8-.3-.8-1.3 1.8-3.3.5-2.5-1.6.5-1.2.2-1.5-1-1-1.1.4-1.4.2-1.1-.7.3-.7-.3-1.9-1.3-2.7-1.7-1.3-1.7-1.3-.3.6s1.4 1.9-.3.6c-1-.8-1.6-2-1.3-2.8.3-.8.2-1.2-.2-.9-.4.2-1.4.1-2.2-.5-1.2-.7-1.1-.9.5-1 1.6-.1 1.5-.2-.5-.8-1.9-.5-2.4-1.3-2.2-3 .3-1.6 0-2.1-.9-1.6-.7.5-1 .4-.6-.2.9-1.5 7.7-1.2 7.7.3zm289.8-.1c.3.2 1.2-.1 2-.8 1.3-.9 1.4-.9.8 0-.4.8-.2 1.3.4 1.3.6 0 .8.5.5 1-.4.6-1.1.8-1.6.5-.5-.4-.6.2-.2 1.1.5 1.4.3 1.6-1 1.1-1.5-.5-1.6-.3-.7 1.3 1.2 2.3-.7 4-2.2 1.9-.6-1-.7-.7-.3 1 .5 1.6.4 2.1-.4 1.7-1-.6-1.5.6-1.2 2.6 0 .4-.6.5-1.4.2-.9-.4-1.8.2-2.4 1.7-.5 1.3-1 1.9-1.1 1.4 0-.6-.7.4-1.5 2.2-1.1 2.5-1.9 3.1-3.6 2.8-1.2-.2-2.4-.7-2.8-1.1-.3-.4.2-.4 1.2-.1.9.4 1.7.4 1.7 0 0-.3-.8-1.2-1.7-2-1.5-1.2-1.5-1.4-.2-1 .9.3 1.6-.1 1.6-.8 0-.8-.3-1.4-.6-1.3-2.1.2-2.3-.4-.4-1.7 1.4-1 2-2.1 1.6-3.2-.5-1.2-.2-1.5 1-1 1.1.4 1.4.2 1-.9-.3-.7 0-1.4.7-1.4.6 0 .8-.5.5-1-.5-.9 1.5-1.5 3.8-1.1.4 0 .7-.4.7-1s-.7-.9-1.4-.6c-1 .4-1.3.1-.9-.8.3-.8.9-1.3 1.3-1 .4.3 1-.2 1.3-1 .6-1.3 4.2-1.3 5.5 0zM579 279.6c0 .8-1.9 1.3-2.4.6-.3-.5.1-.9.9-.9s1.5.2 1.5.3zm-264 8.9c0 .2-.9.3-1.9.2-1.1 0-1.8-.5-1.5-.9.4-.6 3.4 0 3.4.7zM211 442.4c0 .2-.7.7-1.6 1-.8.3-1.2.2-.9-.4.6-1 2.5-1.4 2.5-.6zm4.4 35.1c-.4.8-1.1 1.5-1.6 1.5-.6 0-.5-.6.2-1.5.7-.8 1.4-1.5 1.6-1.5.2 0 .1.7-.2 1.5zM105 489.2c0 .4-.4.8-.9.8-.6 0-1.2-.4-1.5-.8-.3-.5.1-.9.9-.9s1.5.4 1.5.9zm211.9 105.5c1-.9 1.1-.8.5.8-.7 1.8-.6 1.8.9.7 1.4-1.2 1.6-1.1 1.2.8-.3 1.8-.2 2 1 1 1.1-.9 1.5-.9 1.5-.1 0 .6.8 1.1 1.8 1.1 1.4 0 1.5-.2.2-1-.9-.6-1-1-.3-1 .6 0 1.5.5 1.8 1 .4.6 1.1.7 1.7.4.7-.5.8-.2.3.6s-.3 1.1.6.8c.7-.2 2.2.5 3.2 1.6 1 1.2 1.5 1.5 1.1.7-.5-1.1-.3-1.3.9-.8 1 .4 1.7.1 1.7-.6s1.2.1 2.6 1.8c1.4 1.6 2.3 2.5 2 1.8-.4-.6-.2-1.4.4-1.8.5-.3 1.1.2 1.1 1.2.1 1.7.2 1.7.6 0 .6-2.2 1.9-2.2 5.1.4 1.6 1.2 2.8 1.6 3 1 .5-1.4 3.2-1.4 3.2 0 0 .6.7.8 1.6.5 1.2-.4 1.5-.2 1.1.9-.4.8-.2 1.7.3 2 .6.4 1-.1 1-1.1 0-1.4.2-1.5 1.7-.3.9.8 1.4.9 1 .3-.4-.7 0-1.5.9-1.8.8-.3 1.2-.2.9.4-.3.6.1 1 1 1s1.3.4 1 1c-.6.9.7 1.4 2.7 1.1.4 0 .5.6.1 1.5-.5 1.3-.7 1.3-1.4.2-.5-.7-.9-.9-.9-.4s-.6.3-1.4-.3c-1.2-1-1.4-.8-.9 1.1.3 1.6.2 1.9-.5 1-.7-1.1-1-1.1-1.5.1-.4 1-1.3 1.3-2.8 1-1.8-.5-2.1-.3-1.5 1.2.5 1.5.4 1.6-.9.5-1.2-1-1.5-1-1.5 0 0 .7-.8 1-2 .7-1.1-.3-2.3 0-2.7.5-.4.7-.1.8.8.3 1.1-.6 1.1-.5.3.4-.9 1-1.7 1-3.2.2-1.5-.8-2.3-.8-2.8.1-.4.6-.3.8.4.4.6-.3 1.3-.3 1.6.2.7 1.2-2.6 1.1-4.2-.1-.9-.7-1.1-.6-.7.5.4.9 0 1.5-.9 1.5-.8 0-1.3-.4-1-.9.3-.4 0-.8-.5-.8-.6 0-1.1.4-1.1.8 0 1-4.8.8-5.7-.3-.5-.4-.2-.5.6 0 .9.5 1.2.4.8-.2-.7-1.1-3.6-1.1-5.4 0-.6.4-1.4.3-1.8-.3-.4-.6-1.1-.7-1.7-.4-.6.4-.6-.1.1-1.4.8-1.5.8-2.3-.1-2.8-.7-.5-.8-.3-.3.6.5.9.4 1.1-.4.6-.6-.4-.9-1.2-.5-1.7.3-.6-.2-1.9-1.1-2.9-1.5-1.7-1.5-1.9.2-3 1.6-1 1.6-1-.4-.5-2.4.7-6.8-1.7-5.6-2.9.4-.4-.1-.4-1.1 0s-1.4 1-.9 1.3c1.4 1.1 1.2 5-.3 4.4-1-.4-1.2 0-.7 1.2.5 1.5.2 1.7-1.5 1.3-1.1-.3-2.3-.2-2.6.3-.2.5-.3.4-.1-.3.1-.7.8-1.2 1.4-1 .7.1 1-.2.6-.8-.3-.5-1.3-1-2.1-1s-1.4-.8-1.5-1.8c-.2-3.6.3-7.7 1.2-8.8.5-.6.5-1.5.1-1.9-.4-.5-.1-.5.6 0 1 .5 1.1 1 .3 1.8-.6.6-1.1 1.6-1.1 2.1.1 1 2.4-2.3 2.5-3.4.1-1.9 1.8-2.9 3.4-2 1.2.6 2.2.5 3-.3zm52.4 13.8c-.3.9-.8 1.4-1 1.1-.3-.3-.2-.9.2-1.5.9-1.6 1.5-1.3.8.4zm153.5 2c-.3.3-.9-.2-1.2-1.2-.6-1.4-.5-1.5.5-.6.7.7 1 1.5.7 1.8zm-285.4 14.1c.5 1.4.4 1.5-.9.4-1.7-1.4-1.9-2-.6-2 .5 0 1.2.7 1.5 1.6zm156.9 114.9c-.3.9-.8 1.4-1 1.1-.3-.3-.2-.9.2-1.5.9-1.6 1.5-1.3.8.4zm-3.9 1.3c.2.4-.5.9-1.7.9-1.7.2-1.9 0-.7-.7 1.8-1.2 1.8-1.2 2.4-.2z"/><path d="M299 269c0 .5.5 1 1.1 1 .5 0 .7-.5.4-1-.3-.6-.8-1-1.1-1-.2 0-.4.4-.4 1zM313 282.1c0 .5.5.7 1 .4.6-.3 1-.8 1-1.1 0-.2-.4-.4-1-.4-.5 0-1 .5-1 1.1zM317 603.9c0 .6.4 1.3 1 1.6.6.3.7-.1.4-.9-.7-1.8-1.4-2.1-1.4-.7zM343 603.4c0 .2.7.7 1.6 1 .8.3 1.2.2.9-.4-.6-1-2.5-1.4-2.5-.6zM454.6 66.2c.3.5 1 .6 1.5.3 1.3-.9 1.1-1.2-.6-1.2-.8 0-1.2.4-.9.9zM497 148c0 .5.5 1 1.1 1 .5 0 .7-.5.4-1-.3-.6-.8-1-1.1-1-.2 0-.4.4-.4 1zM386 155c-.9.6-1 1-.3 1 .6 0 1.5-.5 1.8-1 .8-1.2.4-1.2-1.5 0zM374.6 156.2c.3.4 1.2.8 2 .8s1.4-.4 1.4-.8-.9-.8-1.9-.8c-1.1 0-1.7.4-1.5.8zM511.3 160.8c-.8 1.4-.8 1.9.1 1.9.7 0 1.3-.9 1.3-1.9.1-1 .1-1.8 0-1.8s-.7.8-1.4 1.8zM641.1 175c-1.3 1.1-1.9 2-1.4 2 .6 0 1.8-.9 2.8-2 2.3-2.5 1.7-2.5-1.4 0zM638.4 178.8c.3.5 0 1.3-.6 1.5-.9.4-1 .6-.1.6 1.7.1 2.5-1.6 1.2-2.5-.7-.4-.9-.3-.5.4zM660.5 192c1 1.1 2 2 2.3 2 .3 0-.3-.9-1.3-2s-2-2-2.3-2c-.3 0 .3.9 1.3 2zM230 191.9c0 .7-.5.9-1.2.5-.7-.5-.8-.3-.3.5.5.9 1 1 1.8.2.6-.6.8-1.4.4-1.8-.4-.3-.7-.1-.7.6zM257.6 195.3c.3 1 .9 1.5 1.2 1.2.3-.3 0-1.1-.7-1.8-1-.9-1.1-.8-.5.6zM220 205.5c-.7.9-.8 1.5-.2 1.5.5 0 1.2-.7 1.6-1.5.3-.8.4-1.5.2-1.5s-.9.7-1.6 1.5zM628.4 213.9c.8 1.2-1.9 3.3-2.9 2.3-.5-.4-.5-.1-.1.6.6 1.1 1.2 1 2.7-.4 1.6-1.4 1.8-3.4.3-3.4-.3 0-.3.4 0 .9zM217.9 215.2c-.5 1.8-.6 3.8-.1 3.4.7-.8 1.2-3.6.6-3.6-.2 0-.4.1-.5.2zM676.9 224.7c-1.3 1.6-1.2 1.7.4.4 1.6-1.3 2.1-2.1 1.3-2.1-.2 0-1 .8-1.7 1.7zM690.5 242c.4.6 1.1.8 1.6.5 1.4-.9 1.1-1.5-.7-1.5-.8 0-1.2.5-.9 1zM297.4 242.8c.3.6-.1 1.5-1 2s-1.2 1.2-.7 1.5c.5.3 1.4-.3 2.1-1.3.9-1.4.9-2.1 0-2.6-.6-.4-.8-.3-.4.4zM197 246.1c0 .5.5.7 1 .4.6-.3 1-.8 1-1.1 0-.2-.4-.4-1-.4-.5 0-1 .5-1 1.1zM595 245.4c0 .2.8 1 1.8 1.7 1.5 1.3 1.6 1.2.3-.4s-2.1-2.1-2.1-1.3zM693.7 246.1c.7.7 1.5 1 1.8.7.3-.3-.2-.9-1.2-1.2-1.4-.6-1.5-.5-.6.5zM695.5 249c.3.5.8 1 1.1 1 .2 0 .4-.5.4-1 0-.6-.5-1-1.1-1-.5 0-.7.4-.4 1zM706.6 286.6c-.9 2.3-.4 2.4 1.7.2 1.3-1.4 1.4-1.8.3-1.8-.8 0-1.7.7-2 1.6zM709.1 354.4c-.9 1.1-.9 1.6 0 2.2.7.4.9.3.5-.4-.3-.5 0-1.2.6-1.5.7-.2 1-.7.7-1.1-.3-.4-1.2 0-1.8.8zM186.2 360c.7 1.1 1.9 2.2 2.8 2.5.8.4.4-.5-.9-1.9-2.9-3.1-3.6-3.3-1.9-.6zM228 378.6c0 1.3 1.8 3.9 2.4 3.4.2-.3-.2-1.4-1-2.4-.8-1.1-1.4-1.6-1.4-1zM232.6 380.7c-.6 1.4-.5 1.5.5.6.7-.7 1-1.5.7-1.8-.3-.3-.9.2-1.2 1.2zM659.9 380.2c1.4 1.9 3.2 1.5 3-.5 0-.8-.2-.8-.6.1-.4 1-.8 1-2.1 0-1.5-1.2-1.6-1.1-.3.4zM223 380.4c0 .2.7.7 1.6 1 .8.3 1.2.2.9-.4-.6-1-2.5-1.4-2.5-.6zM212 384c-.9.6-1 1-.3 1 .6 0 1.5-.5 1.8-1 .8-1.2.4-1.2-1.5 0zM680.5 403.9c-.3.5-.2 1.2.3 1.5.5.3.9-.1.9-.9 0-1.7-.3-1.9-1.2-.6zM674.7 430.7c-1 .9-.9 2.3.1 2.3.5 0 .9-.7.9-1.5 0-1.7-.1-1.8-1-.8zM102.6 483.8c-.3.5.1.9.9.9s1.2-.4.9-.9c-.3-.4-.7-.8-.9-.8-.2 0-.6.4-.9.8zM683.5 487.9c-.3.5-.2 1.2.3 1.5.5.3.9-.1.9-.9 0-1.7-.3-1.9-1.2-.6zM816.6 487.8c-.3.5.1.9.9.9s1.2-.4.9-.9c-.3-.4-.7-.8-.9-.8-.2 0-.6.4-.9.8zM108 489c-.9.6-1 1-.3 1 .6 0 1.5-.5 1.8-1 .8-1.2.4-1.2-1.5 0zM703.6 499.3c.3 1 .9 1.5 1.2 1.2.3-.3 0-1.1-.7-1.8-1-.9-1.1-.8-.5.6zM133.5 506c.3.5.8 1 1.1 1 .2 0 .4-.5.4-1 0-.6-.5-1-1.1-1-.5 0-.7.4-.4 1zM107.6 509.8c-.3.5.1.9.9.9s1.2-.4.9-.9c-.3-.4-.7-.8-.9-.8-.2 0-.6.4-.9.8zM795.6 511.3c.3 1 .9 1.5 1.2 1.2.3-.3 0-1.1-.7-1.8-1-.9-1.1-.8-.5.6zM111.6 515.2c.3.5 1 .6 1.5.3 1.3-.9 1.1-1.2-.6-1.2-.8 0-1.2.4-.9.9zM785.6 516.2c.3.5 1 .6 1.5.3 1.3-.9 1.1-1.2-.6-1.2-.8 0-1.2.4-.9.9zM831 520.1c0 .5.5.7 1 .4.6-.3 1-.8 1-1.1 0-.2-.4-.4-1-.4-.5 0-1 .5-1 1.1zM822.6 523.8c-.3.5.1.9.9.9s1.2-.4.9-.9c-.3-.4-.7-.8-.9-.8-.2 0-.6.4-.9.8zM666.5 531.9c-.3.5-.2 1.2.3 1.5.5.3.9-.1.9-.9 0-1.7-.3-1.9-1.2-.6zM659.5 542c-.3.5-.1 1 .4 1 .6 0 1.1-.5 1.1-1 0-.6-.2-1-.4-1-.3 0-.8.4-1.1 1zM262 570c0 .5.5 1 1.1 1 .5 0 .7-.5.4-1-.3-.6-.8-1-1.1-1-.2 0-.4.4-.4 1zM213 576c0 .5.5 1 1.1 1 .5 0 .7-.5.4-1-.3-.6-.8-1-1.1-1-.2 0-.4.4-.4 1zM273.6 576.8c-.3.5.1.9.9.9s1.2-.4.9-.9c-.3-.4-.7-.8-.9-.8-.2 0-.6.4-.9.8zM596.9 587.7c-1.3 1.6-1.2 1.7.4.4 1.6-1.3 2.1-2.1 1.3-2.1-.2 0-1 .8-1.7 1.7zM297.9 590.7c-1.2 1.6-1.2 1.7.2.6.9-.7 2-.9 2.4-.5.5.4.5.1.1-.6-.9-1.6-1.1-1.5-2.7.5zM255 592c0 .5.5 1 1.1 1 .5 0 .7-.5.4-1-.3-.6-.8-1-1.1-1-.2 0-.4.4-.4 1zM283.6 614.2c.3.5 1 .6 1.5.3 1.3-.9 1.1-1.2-.6-1.2-.8 0-1.2.4-.9.9zM558.6 617.8c-.3.5.1.9.9.9s1.2-.4.9-.9c-.3-.4-.7-.8-.9-.8-.2 0-.6.4-.9.8zM280.6 622.2c.3.5 1 .6 1.5.3 1.3-.9 1.1-1.2-.6-1.2-.8 0-1.2.4-.9.9zM284.5 626c.3.5.8 1 1.1 1 .2 0 .4-.5.4-1 0-.6-.5-1-1.1-1-.5 0-.7.4-.4 1zM241.6 635.3c.3 1 .9 1.5 1.2 1.2.3-.3 0-1.1-.7-1.8-1-.9-1.1-.8-.5.6zM597 635.1c0 .5.5.7 1 .4.6-.3 1-.8 1-1.1 0-.2-.4-.4-1-.4-.5 0-1 .5-1 1.1zM605.6 648.7c-.6 1.4-.5 1.5.5.6.7-.7 1-1.5.7-1.8-.3-.3-.9.2-1.2 1.2zM621.5 661.9c-.3.5-.2 1.2.3 1.5.5.3.9-.1.9-.9 0-1.7-.3-1.9-1.2-.6zM615.5 668c-.3.5-.1 1 .4 1 .6 0 1.1-.5 1.1-1 0-.6-.2-1-.4-1-.3 0-.8.4-1.1 1zM578.3 688.5c0 .8.4 1.2.9.9.5-.3.6-1 .3-1.5-.9-1.3-1.2-1.1-1.2.6zM567.6 697.8c-.3.5.1.9.9.9s1.2-.4.9-.9c-.3-.4-.7-.8-.9-.8-.2 0-.6.4-.9.8zM534.5 699c-.3.6.1.7.9.4 1.8-.7 2.1-1.4.7-1.4-.6 0-1.3.4-1.6 1zM558.5 699c-.3.6.1.7.9.4 1.8-.7 2.1-1.4.7-1.4-.6 0-1.3.4-1.6 1zM545.6 700.2c.3.5 1 .6 1.5.3 1.3-.9 1.1-1.2-.6-1.2-.8 0-1.2.4-.9.9zM369 732.9c0 .5.7 1.2 1.6 1.5 1.4.5 1.5.4.4-.9-1.4-1.7-2-1.9-2-.6zM403.3 769.5c0 .8.4 1.5.9 1.5.4 0 .8-.4.8-.9 0-.6-.4-1.2-.8-1.5-.5-.3-.9.1-.9.9zM394 772.4c0 .2.7.9 1.5 1.6.9.7 1.5.8 1.5.2 0-.5-.7-1.2-1.5-1.6-.8-.3-1.5-.4-1.5-.2zM549.3 780.5c0 .8.4 1.2.9.9.5-.3.6-1 .3-1.5-.9-1.3-1.2-1.1-1.2.6zM618.9 817.7c-1.3 1.6-1.2 1.7.4.4 1.6-1.3 2.1-2.1 1.3-2.1-.2 0-1 .8-1.7 1.7zM284.4 825.3c-.4.6-.4.9.1.5.4-.4 1.4-.3 2.2.4.7.6 1.5.9 1.8.7.2-.3-.4-1-1.5-1.7-1.5-.9-2.1-.9-2.6.1zM577.5 833.1c-.4.6-.5 1.2-.2 1.5.2.3.7-.2 1-1.1.7-1.7.1-2-.8-.4zM547.5 838c.3.5.8 1 1.1 1 .2 0 .4-.5.4-1 0-.6-.5-1-1.1-1-.5 0-.7.4-.4 1zM390.5 842c-.3.6.1.7.9.4 1.8-.7 2.1-1.4.7-1.4-.6 0-1.3.4-1.6 1zM493.6 842.2c.3.5 1 .6 1.5.3 1.3-.9 1.1-1.2-.6-1.2-.8 0-1.2.4-.9.9z"/></svg>